<mxfile host="app.diagrams.net" modified="2024-04-26T09:26:24.570Z" agent="Mozilla/5.0 (Windows NT 10.0; Win64; x64) AppleWebKit/537.36 (KHTML, like Gecko) Chrome/123.0.0.0 Safari/537.36 OPR/109.0.0.0" etag="0awAP0O2Jg7hBwld9Ibe" version="24.2.9" type="device">
  <diagram name="Страница-1" id="HSLphhqYOJ2nkCf6-k-8">
    <mxGraphModel dx="1803" dy="486" grid="1" gridSize="10" guides="1" tooltips="1" connect="1" arrows="1" fold="1" page="1" pageScale="1" pageWidth="827" pageHeight="1169" math="0" shadow="0">
      <root>
        <mxCell id="0" />
        <mxCell id="1" parent="0" />
        <mxCell id="h5k0YEzs9gjq5X7zC4rC-1" value="accounts" style="rounded=0;whiteSpace=wrap;html=1;labelBackgroundColor=none;fillColor=#09555B;strokeColor=#BAC8D3;fontColor=#EEEEEE;" parent="1" vertex="1">
          <mxGeometry x="337" y="415" width="70" height="30" as="geometry" />
        </mxCell>
        <mxCell id="h5k0YEzs9gjq5X7zC4rC-2" value="username" style="ellipse;whiteSpace=wrap;html=1;labelBackgroundColor=none;fillColor=#09555B;strokeColor=#BAC8D3;fontColor=#EEEEEE;" parent="1" vertex="1">
          <mxGeometry x="254" y="370" width="70" height="30" as="geometry" />
        </mxCell>
        <mxCell id="h5k0YEzs9gjq5X7zC4rC-3" value="" style="endArrow=none;html=1;rounded=0;entryX=0.71;entryY=1.033;entryDx=0;entryDy=0;entryPerimeter=0;exitX=0;exitY=0.5;exitDx=0;exitDy=0;labelBackgroundColor=none;fontColor=default;strokeColor=#0B4D6A;" parent="1" source="h5k0YEzs9gjq5X7zC4rC-1" target="h5k0YEzs9gjq5X7zC4rC-2" edge="1">
          <mxGeometry width="50" height="50" relative="1" as="geometry">
            <mxPoint x="473" y="540" as="sourcePoint" />
            <mxPoint x="523" y="490" as="targetPoint" />
          </mxGeometry>
        </mxCell>
        <mxCell id="h5k0YEzs9gjq5X7zC4rC-4" value="password" style="ellipse;whiteSpace=wrap;html=1;labelBackgroundColor=none;fillColor=#09555B;strokeColor=#BAC8D3;fontColor=#EEEEEE;" parent="1" vertex="1">
          <mxGeometry x="317" y="360" width="70" height="30" as="geometry" />
        </mxCell>
        <mxCell id="h5k0YEzs9gjq5X7zC4rC-5" value="" style="endArrow=none;html=1;rounded=0;entryX=0.5;entryY=1;entryDx=0;entryDy=0;exitX=0.602;exitY=-0.022;exitDx=0;exitDy=0;exitPerimeter=0;labelBackgroundColor=none;fontColor=default;strokeColor=#0B4D6A;" parent="1" source="h5k0YEzs9gjq5X7zC4rC-1" target="h5k0YEzs9gjq5X7zC4rC-4" edge="1">
          <mxGeometry width="50" height="50" relative="1" as="geometry">
            <mxPoint x="473" y="540" as="sourcePoint" />
            <mxPoint x="523" y="490" as="targetPoint" />
          </mxGeometry>
        </mxCell>
        <mxCell id="h5k0YEzs9gjq5X7zC4rC-6" value="role" style="ellipse;whiteSpace=wrap;html=1;labelBackgroundColor=none;fillColor=#09555B;strokeColor=#BAC8D3;fontColor=#EEEEEE;" parent="1" vertex="1">
          <mxGeometry x="387" y="360" width="70" height="30" as="geometry" />
        </mxCell>
        <mxCell id="h5k0YEzs9gjq5X7zC4rC-7" value="" style="endArrow=none;html=1;rounded=0;entryX=0.3;entryY=0.9;entryDx=0;entryDy=0;exitX=1;exitY=0.25;exitDx=0;exitDy=0;labelBackgroundColor=none;fontColor=default;entryPerimeter=0;strokeColor=#0B4D6A;" parent="1" source="h5k0YEzs9gjq5X7zC4rC-1" target="h5k0YEzs9gjq5X7zC4rC-6" edge="1">
          <mxGeometry width="50" height="50" relative="1" as="geometry">
            <mxPoint x="475" y="429" as="sourcePoint" />
            <mxPoint x="603" y="500" as="targetPoint" />
          </mxGeometry>
        </mxCell>
        <mxCell id="h5k0YEzs9gjq5X7zC4rC-9" value="online_status" style="ellipse;whiteSpace=wrap;html=1;labelBackgroundColor=none;fillColor=#09555B;strokeColor=#BAC8D3;fontColor=#EEEEEE;" parent="1" vertex="1">
          <mxGeometry x="401" y="472.5" width="76" height="30" as="geometry" />
        </mxCell>
        <mxCell id="h5k0YEzs9gjq5X7zC4rC-10" value="" style="endArrow=none;html=1;rounded=0;labelBackgroundColor=none;fontColor=default;strokeColor=#0B4D6A;" parent="1" target="h5k0YEzs9gjq5X7zC4rC-9" edge="1" source="h5k0YEzs9gjq5X7zC4rC-1">
          <mxGeometry width="50" height="50" relative="1" as="geometry">
            <mxPoint x="423" y="450" as="sourcePoint" />
            <mxPoint x="603" y="560" as="targetPoint" />
          </mxGeometry>
        </mxCell>
        <mxCell id="h5k0YEzs9gjq5X7zC4rC-11" value="&lt;u&gt;id&lt;/u&gt;" style="ellipse;whiteSpace=wrap;html=1;labelBackgroundColor=none;fillColor=#09555B;strokeColor=#BAC8D3;fontColor=#EEEEEE;" parent="1" vertex="1">
          <mxGeometry x="257" y="450" width="70" height="30" as="geometry" />
        </mxCell>
        <mxCell id="h5k0YEzs9gjq5X7zC4rC-12" value="" style="endArrow=none;html=1;rounded=0;entryX=1;entryY=0;entryDx=0;entryDy=0;exitX=0.25;exitY=1;exitDx=0;exitDy=0;labelBackgroundColor=none;fontColor=default;strokeColor=#0B4D6A;" parent="1" source="h5k0YEzs9gjq5X7zC4rC-1" target="h5k0YEzs9gjq5X7zC4rC-11" edge="1">
          <mxGeometry width="50" height="50" relative="1" as="geometry">
            <mxPoint x="315" y="499" as="sourcePoint" />
            <mxPoint x="443" y="570" as="targetPoint" />
          </mxGeometry>
        </mxCell>
        <mxCell id="h5k0YEzs9gjq5X7zC4rC-15" value="last_seen" style="ellipse;whiteSpace=wrap;html=1;labelBackgroundColor=none;fillColor=#09555B;strokeColor=#BAC8D3;fontColor=#EEEEEE;" parent="1" vertex="1">
          <mxGeometry x="317" y="472.5" width="70" height="30" as="geometry" />
        </mxCell>
        <mxCell id="h5k0YEzs9gjq5X7zC4rC-16" value="" style="endArrow=none;html=1;rounded=0;entryX=0.5;entryY=0;entryDx=0;entryDy=0;exitX=0.579;exitY=1.089;exitDx=0;exitDy=0;exitPerimeter=0;labelBackgroundColor=none;fontColor=default;strokeColor=#0B4D6A;" parent="1" source="h5k0YEzs9gjq5X7zC4rC-1" target="h5k0YEzs9gjq5X7zC4rC-15" edge="1">
          <mxGeometry width="50" height="50" relative="1" as="geometry">
            <mxPoint x="395" y="519" as="sourcePoint" />
            <mxPoint x="523" y="590" as="targetPoint" />
          </mxGeometry>
        </mxCell>
        <mxCell id="h5k0YEzs9gjq5X7zC4rC-18" value="teachers" style="rounded=0;whiteSpace=wrap;html=1;labelBackgroundColor=none;fillColor=#09555B;strokeColor=#BAC8D3;fontColor=#EEEEEE;" parent="1" vertex="1">
          <mxGeometry x="7" y="410" width="70" height="30" as="geometry" />
        </mxCell>
        <mxCell id="h5k0YEzs9gjq5X7zC4rC-19" value="full_name" style="ellipse;whiteSpace=wrap;html=1;labelBackgroundColor=none;fillColor=#09555B;strokeColor=#BAC8D3;fontColor=#EEEEEE;" parent="1" vertex="1">
          <mxGeometry x="-51.5" y="370" width="70" height="30" as="geometry" />
        </mxCell>
        <mxCell id="h5k0YEzs9gjq5X7zC4rC-20" value="" style="endArrow=none;html=1;rounded=0;entryX=0.69;entryY=0.914;entryDx=0;entryDy=0;exitX=0.602;exitY=-0.022;exitDx=0;exitDy=0;exitPerimeter=0;labelBackgroundColor=none;fontColor=default;entryPerimeter=0;strokeColor=#0B4D6A;" parent="1" target="h5k0YEzs9gjq5X7zC4rC-19" edge="1">
          <mxGeometry width="50" height="50" relative="1" as="geometry">
            <mxPoint x="19" y="410" as="sourcePoint" />
            <mxPoint x="147" y="481" as="targetPoint" />
          </mxGeometry>
        </mxCell>
        <mxCell id="h5k0YEzs9gjq5X7zC4rC-21" value="phone_no" style="ellipse;whiteSpace=wrap;html=1;labelBackgroundColor=none;fillColor=#09555B;strokeColor=#BAC8D3;fontColor=#EEEEEE;" parent="1" vertex="1">
          <mxGeometry x="18.5" y="360" width="70" height="30" as="geometry" />
        </mxCell>
        <mxCell id="h5k0YEzs9gjq5X7zC4rC-22" value="" style="endArrow=none;html=1;rounded=0;entryX=0.5;entryY=1;entryDx=0;entryDy=0;exitX=0.592;exitY=0;exitDx=0;exitDy=0;exitPerimeter=0;labelBackgroundColor=none;fontColor=default;strokeColor=#0B4D6A;" parent="1" source="h5k0YEzs9gjq5X7zC4rC-18" target="h5k0YEzs9gjq5X7zC4rC-21" edge="1">
          <mxGeometry width="50" height="50" relative="1" as="geometry">
            <mxPoint x="79" y="409" as="sourcePoint" />
            <mxPoint x="207" y="480" as="targetPoint" />
          </mxGeometry>
        </mxCell>
        <mxCell id="h5k0YEzs9gjq5X7zC4rC-26" value="quizes" style="rounded=0;whiteSpace=wrap;html=1;labelBackgroundColor=none;fillColor=#09555B;strokeColor=#BAC8D3;fontColor=#EEEEEE;" parent="1" vertex="1">
          <mxGeometry x="95" y="770" width="90" height="30" as="geometry" />
        </mxCell>
        <mxCell id="h5k0YEzs9gjq5X7zC4rC-27" value="&lt;u&gt;id&lt;/u&gt;" style="ellipse;whiteSpace=wrap;html=1;labelBackgroundColor=none;fillColor=#09555B;strokeColor=#BAC8D3;fontColor=#EEEEEE;" parent="1" vertex="1">
          <mxGeometry x="-99.5" y="400" width="70" height="30" as="geometry" />
        </mxCell>
        <mxCell id="h5k0YEzs9gjq5X7zC4rC-28" value="" style="endArrow=none;html=1;rounded=0;entryX=1;entryY=0.5;entryDx=0;entryDy=0;exitX=0;exitY=0.5;exitDx=0;exitDy=0;labelBackgroundColor=none;fontColor=default;strokeColor=#0B4D6A;" parent="1" source="h5k0YEzs9gjq5X7zC4rC-18" target="h5k0YEzs9gjq5X7zC4rC-27" edge="1">
          <mxGeometry width="50" height="50" relative="1" as="geometry">
            <mxPoint x="17" y="440" as="sourcePoint" />
            <mxPoint x="90" y="560" as="targetPoint" />
          </mxGeometry>
        </mxCell>
        <mxCell id="h5k0YEzs9gjq5X7zC4rC-33" value="teacher_id" style="ellipse;whiteSpace=wrap;html=1;labelBackgroundColor=none;fillColor=#09555B;strokeColor=#BAC8D3;fontColor=#EEEEEE;" parent="1" vertex="1">
          <mxGeometry x="-10" y="750" width="76" height="30" as="geometry" />
        </mxCell>
        <mxCell id="h5k0YEzs9gjq5X7zC4rC-36" value="" style="endArrow=none;html=1;rounded=0;entryX=0.938;entryY=0.696;entryDx=0;entryDy=0;exitX=0;exitY=0.75;exitDx=0;exitDy=0;labelBackgroundColor=none;fontColor=default;strokeColor=#0B4D6A;entryPerimeter=0;" parent="1" source="h5k0YEzs9gjq5X7zC4rC-26" target="h5k0YEzs9gjq5X7zC4rC-33" edge="1">
          <mxGeometry width="50" height="50" relative="1" as="geometry">
            <mxPoint x="16" y="750" as="sourcePoint" />
            <mxPoint x="66" y="700" as="targetPoint" />
          </mxGeometry>
        </mxCell>
        <mxCell id="h5k0YEzs9gjq5X7zC4rC-38" value="&lt;u&gt;id&lt;/u&gt;" style="ellipse;whiteSpace=wrap;html=1;labelBackgroundColor=none;fillColor=#09555B;strokeColor=#BAC8D3;fontColor=#EEEEEE;" parent="1" vertex="1">
          <mxGeometry x="126" y="710" width="70" height="30" as="geometry" />
        </mxCell>
        <mxCell id="h5k0YEzs9gjq5X7zC4rC-39" value="" style="endArrow=none;html=1;rounded=0;exitX=0.5;exitY=1;exitDx=0;exitDy=0;labelBackgroundColor=none;fontColor=default;strokeColor=#0B4D6A;" parent="1" source="h5k0YEzs9gjq5X7zC4rC-38" target="h5k0YEzs9gjq5X7zC4rC-26" edge="1">
          <mxGeometry width="50" height="50" relative="1" as="geometry">
            <mxPoint x="-44" y="730" as="sourcePoint" />
            <mxPoint x="6" y="680" as="targetPoint" />
          </mxGeometry>
        </mxCell>
        <mxCell id="h5k0YEzs9gjq5X7zC4rC-40" value="courses" style="rounded=0;whiteSpace=wrap;html=1;labelBackgroundColor=none;fillColor=#09555B;strokeColor=#BAC8D3;fontColor=#EEEEEE;" parent="1" vertex="1">
          <mxGeometry x="354" y="630" width="70" height="30" as="geometry" />
        </mxCell>
        <mxCell id="h5k0YEzs9gjq5X7zC4rC-41" value="faculty" style="ellipse;whiteSpace=wrap;html=1;labelBackgroundColor=none;fillColor=#09555B;strokeColor=#BAC8D3;fontColor=#EEEEEE;" parent="1" vertex="1">
          <mxGeometry x="353" y="570" width="70" height="30" as="geometry" />
        </mxCell>
        <mxCell id="h5k0YEzs9gjq5X7zC4rC-42" value="specialty" style="ellipse;whiteSpace=wrap;html=1;labelBackgroundColor=none;fillColor=#09555B;strokeColor=#BAC8D3;fontColor=#EEEEEE;" parent="1" vertex="1">
          <mxGeometry x="443" y="585" width="70" height="30" as="geometry" />
        </mxCell>
        <mxCell id="h5k0YEzs9gjq5X7zC4rC-43" value="&lt;u&gt;id&lt;/u&gt;" style="ellipse;whiteSpace=wrap;html=1;labelBackgroundColor=none;fillColor=#09555B;strokeColor=#BAC8D3;fontColor=#EEEEEE;" parent="1" vertex="1">
          <mxGeometry x="414" y="690" width="70" height="30" as="geometry" />
        </mxCell>
        <mxCell id="h5k0YEzs9gjq5X7zC4rC-44" value="" style="endArrow=none;html=1;rounded=0;entryX=0.5;entryY=1;entryDx=0;entryDy=0;exitX=0.5;exitY=0;exitDx=0;exitDy=0;labelBackgroundColor=none;fontColor=default;strokeColor=#0B4D6A;" parent="1" source="h5k0YEzs9gjq5X7zC4rC-40" target="h5k0YEzs9gjq5X7zC4rC-41" edge="1">
          <mxGeometry width="50" height="50" relative="1" as="geometry">
            <mxPoint x="404" y="600" as="sourcePoint" />
            <mxPoint x="454" y="550" as="targetPoint" />
          </mxGeometry>
        </mxCell>
        <mxCell id="h5k0YEzs9gjq5X7zC4rC-45" value="" style="endArrow=none;html=1;rounded=0;entryX=0.271;entryY=0.967;entryDx=0;entryDy=0;exitX=0.886;exitY=-0.033;exitDx=0;exitDy=0;exitPerimeter=0;entryPerimeter=0;labelBackgroundColor=none;fontColor=default;strokeColor=#0B4D6A;" parent="1" source="h5k0YEzs9gjq5X7zC4rC-40" target="h5k0YEzs9gjq5X7zC4rC-42" edge="1">
          <mxGeometry width="50" height="50" relative="1" as="geometry">
            <mxPoint x="404" y="600" as="sourcePoint" />
            <mxPoint x="410.31999999999994" y="608.5" as="targetPoint" />
          </mxGeometry>
        </mxCell>
        <mxCell id="h5k0YEzs9gjq5X7zC4rC-46" value="" style="endArrow=none;html=1;rounded=0;exitX=0.643;exitY=0.967;exitDx=0;exitDy=0;exitPerimeter=0;labelBackgroundColor=none;fontColor=default;strokeColor=#0B4D6A;" parent="1" source="h5k0YEzs9gjq5X7zC4rC-40" target="h5k0YEzs9gjq5X7zC4rC-43" edge="1">
          <mxGeometry width="50" height="50" relative="1" as="geometry">
            <mxPoint x="404" y="600" as="sourcePoint" />
            <mxPoint x="454" y="550" as="targetPoint" />
          </mxGeometry>
        </mxCell>
        <mxCell id="h5k0YEzs9gjq5X7zC4rC-47" value="students" style="rounded=0;whiteSpace=wrap;html=1;labelBackgroundColor=none;fillColor=#09555B;strokeColor=#BAC8D3;fontColor=#EEEEEE;" parent="1" vertex="1">
          <mxGeometry x="711.5" y="630" width="70" height="30" as="geometry" />
        </mxCell>
        <mxCell id="h5k0YEzs9gjq5X7zC4rC-48" value="&lt;u&gt;id&lt;/u&gt;" style="ellipse;whiteSpace=wrap;html=1;labelBackgroundColor=none;fillColor=#09555B;strokeColor=#BAC8D3;fontColor=#EEEEEE;" parent="1" vertex="1">
          <mxGeometry x="624.5" y="640" width="70" height="30" as="geometry" />
        </mxCell>
        <mxCell id="h5k0YEzs9gjq5X7zC4rC-49" value="" style="endArrow=none;html=1;rounded=0;entryX=0;entryY=0.75;entryDx=0;entryDy=0;exitX=1;exitY=0.5;exitDx=0;exitDy=0;labelBackgroundColor=none;fontColor=default;strokeColor=#0B4D6A;" parent="1" source="h5k0YEzs9gjq5X7zC4rC-48" target="h5k0YEzs9gjq5X7zC4rC-47" edge="1">
          <mxGeometry width="50" height="50" relative="1" as="geometry">
            <mxPoint x="547.5" y="670" as="sourcePoint" />
            <mxPoint x="597.5" y="620" as="targetPoint" />
          </mxGeometry>
        </mxCell>
        <mxCell id="h5k0YEzs9gjq5X7zC4rC-50" value="full_name" style="ellipse;whiteSpace=wrap;html=1;labelBackgroundColor=none;fillColor=#09555B;strokeColor=#BAC8D3;fontColor=#EEEEEE;" parent="1" vertex="1">
          <mxGeometry x="601.5" y="600" width="70" height="30" as="geometry" />
        </mxCell>
        <mxCell id="h5k0YEzs9gjq5X7zC4rC-51" value="" style="endArrow=none;html=1;rounded=0;entryX=1;entryY=0.5;entryDx=0;entryDy=0;exitX=0.1;exitY=0.089;exitDx=0;exitDy=0;exitPerimeter=0;labelBackgroundColor=none;fontColor=default;strokeColor=#0B4D6A;" parent="1" source="h5k0YEzs9gjq5X7zC4rC-47" target="h5k0YEzs9gjq5X7zC4rC-50" edge="1">
          <mxGeometry width="50" height="50" relative="1" as="geometry">
            <mxPoint x="547.5" y="670" as="sourcePoint" />
            <mxPoint x="597.5" y="620" as="targetPoint" />
          </mxGeometry>
        </mxCell>
        <mxCell id="h5k0YEzs9gjq5X7zC4rC-52" value="email" style="ellipse;whiteSpace=wrap;html=1;labelBackgroundColor=none;fillColor=#09555B;strokeColor=#BAC8D3;fontColor=#EEEEEE;" parent="1" vertex="1">
          <mxGeometry x="100" y="370" width="70" height="30" as="geometry" />
        </mxCell>
        <mxCell id="h5k0YEzs9gjq5X7zC4rC-53" value="" style="endArrow=none;html=1;rounded=0;entryX=0;entryY=1;entryDx=0;entryDy=0;exitX=1;exitY=0.25;exitDx=0;exitDy=0;labelBackgroundColor=none;fontColor=default;strokeColor=#0B4D6A;" parent="1" source="h5k0YEzs9gjq5X7zC4rC-18" target="h5k0YEzs9gjq5X7zC4rC-52" edge="1">
          <mxGeometry width="50" height="50" relative="1" as="geometry">
            <mxPoint x="80" y="420" as="sourcePoint" />
            <mxPoint x="158.5" y="330" as="targetPoint" />
          </mxGeometry>
        </mxCell>
        <mxCell id="h5k0YEzs9gjq5X7zC4rC-54" value="phone_no" style="ellipse;whiteSpace=wrap;html=1;labelBackgroundColor=none;fillColor=#09555B;strokeColor=#BAC8D3;fontColor=#EEEEEE;" parent="1" vertex="1">
          <mxGeometry x="701.5" y="580" width="70" height="30" as="geometry" />
        </mxCell>
        <mxCell id="h5k0YEzs9gjq5X7zC4rC-55" value="" style="endArrow=none;html=1;rounded=0;entryX=0.5;entryY=1;entryDx=0;entryDy=0;exitX=0.5;exitY=0;exitDx=0;exitDy=0;labelBackgroundColor=none;fontColor=default;strokeColor=#0B4D6A;" parent="1" source="h5k0YEzs9gjq5X7zC4rC-47" target="h5k0YEzs9gjq5X7zC4rC-54" edge="1">
          <mxGeometry width="50" height="50" relative="1" as="geometry">
            <mxPoint x="547.5" y="670" as="sourcePoint" />
            <mxPoint x="597.5" y="620" as="targetPoint" />
          </mxGeometry>
        </mxCell>
        <mxCell id="h5k0YEzs9gjq5X7zC4rC-56" value="email" style="ellipse;whiteSpace=wrap;html=1;labelBackgroundColor=none;fillColor=#09555B;strokeColor=#BAC8D3;fontColor=#EEEEEE;" parent="1" vertex="1">
          <mxGeometry x="807.5" y="640" width="70" height="30" as="geometry" />
        </mxCell>
        <mxCell id="h5k0YEzs9gjq5X7zC4rC-57" value="" style="endArrow=none;html=1;rounded=0;exitX=1;exitY=0.5;exitDx=0;exitDy=0;entryX=0;entryY=0.5;entryDx=0;entryDy=0;labelBackgroundColor=none;fontColor=default;strokeColor=#0B4D6A;" parent="1" source="h5k0YEzs9gjq5X7zC4rC-47" target="h5k0YEzs9gjq5X7zC4rC-56" edge="1">
          <mxGeometry width="50" height="50" relative="1" as="geometry">
            <mxPoint x="547.5" y="670" as="sourcePoint" />
            <mxPoint x="597.5" y="620" as="targetPoint" />
          </mxGeometry>
        </mxCell>
        <mxCell id="h5k0YEzs9gjq5X7zC4rC-60" value="country" style="ellipse;whiteSpace=wrap;html=1;labelBackgroundColor=none;fillColor=#09555B;strokeColor=#BAC8D3;fontColor=#EEEEEE;" parent="1" vertex="1">
          <mxGeometry x="766" y="670" width="70" height="30" as="geometry" />
        </mxCell>
        <mxCell id="h5k0YEzs9gjq5X7zC4rC-61" value="sex" style="ellipse;whiteSpace=wrap;html=1;labelBackgroundColor=none;fillColor=#09555B;strokeColor=#BAC8D3;fontColor=#EEEEEE;" parent="1" vertex="1">
          <mxGeometry x="711.5" y="690" width="70" height="30" as="geometry" />
        </mxCell>
        <mxCell id="h5k0YEzs9gjq5X7zC4rC-63" value="" style="endArrow=none;html=1;rounded=0;exitX=0.75;exitY=1;exitDx=0;exitDy=0;labelBackgroundColor=none;fontColor=default;strokeColor=#0B4D6A;" parent="1" source="h5k0YEzs9gjq5X7zC4rC-47" target="h5k0YEzs9gjq5X7zC4rC-60" edge="1">
          <mxGeometry width="50" height="50" relative="1" as="geometry">
            <mxPoint x="547.5" y="620" as="sourcePoint" />
            <mxPoint x="597.5" y="570" as="targetPoint" />
          </mxGeometry>
        </mxCell>
        <mxCell id="h5k0YEzs9gjq5X7zC4rC-64" value="" style="endArrow=none;html=1;rounded=0;entryX=0.5;entryY=0;entryDx=0;entryDy=0;exitX=0.5;exitY=1;exitDx=0;exitDy=0;labelBackgroundColor=none;fontColor=default;strokeColor=#0B4D6A;" parent="1" source="h5k0YEzs9gjq5X7zC4rC-47" target="h5k0YEzs9gjq5X7zC4rC-61" edge="1">
          <mxGeometry width="50" height="50" relative="1" as="geometry">
            <mxPoint x="547.5" y="620" as="sourcePoint" />
            <mxPoint x="597.5" y="570" as="targetPoint" />
          </mxGeometry>
        </mxCell>
        <mxCell id="h5k0YEzs9gjq5X7zC4rC-65" value="country" style="ellipse;whiteSpace=wrap;html=1;labelBackgroundColor=none;fillColor=#09555B;strokeColor=#BAC8D3;fontColor=#EEEEEE;" parent="1" vertex="1">
          <mxGeometry x="50" y="470" width="70" height="30" as="geometry" />
        </mxCell>
        <mxCell id="h5k0YEzs9gjq5X7zC4rC-66" value="" style="endArrow=none;html=1;rounded=0;entryX=0.75;entryY=1;entryDx=0;entryDy=0;exitX=0.5;exitY=0;exitDx=0;exitDy=0;labelBackgroundColor=none;fontColor=default;strokeColor=#0B4D6A;" parent="1" source="h5k0YEzs9gjq5X7zC4rC-65" target="h5k0YEzs9gjq5X7zC4rC-18" edge="1">
          <mxGeometry width="50" height="50" relative="1" as="geometry">
            <mxPoint x="160" y="430" as="sourcePoint" />
            <mxPoint x="210" y="380" as="targetPoint" />
          </mxGeometry>
        </mxCell>
        <mxCell id="h5k0YEzs9gjq5X7zC4rC-67" value="sex" style="ellipse;whiteSpace=wrap;html=1;labelBackgroundColor=none;fillColor=#09555B;strokeColor=#BAC8D3;fontColor=#EEEEEE;" parent="1" vertex="1">
          <mxGeometry x="-51.5" y="460" width="70" height="30" as="geometry" />
        </mxCell>
        <mxCell id="h5k0YEzs9gjq5X7zC4rC-69" value="" style="endArrow=none;html=1;rounded=0;entryX=0.25;entryY=1;entryDx=0;entryDy=0;exitX=0.745;exitY=0.006;exitDx=0;exitDy=0;exitPerimeter=0;labelBackgroundColor=none;fontColor=default;strokeColor=#0B4D6A;" parent="1" source="h5k0YEzs9gjq5X7zC4rC-67" target="h5k0YEzs9gjq5X7zC4rC-18" edge="1">
          <mxGeometry width="50" height="50" relative="1" as="geometry">
            <mxPoint x="160" y="430" as="sourcePoint" />
            <mxPoint x="210" y="380" as="targetPoint" />
          </mxGeometry>
        </mxCell>
        <mxCell id="h5k0YEzs9gjq5X7zC4rC-70" value="quizes_info" style="rounded=0;whiteSpace=wrap;html=1;labelBackgroundColor=none;fillColor=#09555B;strokeColor=#BAC8D3;fontColor=#EEEEEE;" parent="1" vertex="1">
          <mxGeometry x="-275.5" y="520" width="70" height="30" as="geometry" />
        </mxCell>
        <mxCell id="h5k0YEzs9gjq5X7zC4rC-71" value="&lt;u&gt;id&lt;/u&gt;" style="ellipse;whiteSpace=wrap;html=1;labelBackgroundColor=none;fillColor=#09555B;strokeColor=#BAC8D3;fontColor=#EEEEEE;" parent="1" vertex="1">
          <mxGeometry x="-360" y="530" width="70" height="30" as="geometry" />
        </mxCell>
        <mxCell id="h5k0YEzs9gjq5X7zC4rC-72" value="" style="endArrow=none;html=1;rounded=0;entryX=0;entryY=0.5;entryDx=0;entryDy=0;exitX=1;exitY=0.5;exitDx=0;exitDy=0;labelBackgroundColor=none;fontColor=default;strokeColor=#0B4D6A;" parent="1" source="h5k0YEzs9gjq5X7zC4rC-71" target="h5k0YEzs9gjq5X7zC4rC-70" edge="1">
          <mxGeometry width="50" height="50" relative="1" as="geometry">
            <mxPoint x="-371.5" y="430" as="sourcePoint" />
            <mxPoint x="-321.5" y="380" as="targetPoint" />
          </mxGeometry>
        </mxCell>
        <mxCell id="h5k0YEzs9gjq5X7zC4rC-79" value="teacher_id" style="ellipse;whiteSpace=wrap;html=1;labelBackgroundColor=none;fillColor=#09555B;strokeColor=#BAC8D3;fontColor=#EEEEEE;" parent="1" vertex="1">
          <mxGeometry x="-333" y="575" width="70" height="30" as="geometry" />
        </mxCell>
        <mxCell id="h5k0YEzs9gjq5X7zC4rC-80" value="" style="endArrow=none;html=1;rounded=0;entryX=0.718;entryY=-0.033;entryDx=0;entryDy=0;labelBackgroundColor=none;fontColor=default;entryPerimeter=0;strokeColor=#0B4D6A;" parent="1" source="h5k0YEzs9gjq5X7zC4rC-70" target="h5k0YEzs9gjq5X7zC4rC-79" edge="1">
          <mxGeometry width="50" height="50" relative="1" as="geometry">
            <mxPoint x="-220" y="490" as="sourcePoint" />
            <mxPoint x="-170" y="440" as="targetPoint" />
          </mxGeometry>
        </mxCell>
        <mxCell id="RIBBvxnIX1Z7tL-mWI6Q-1" value="semester" style="ellipse;whiteSpace=wrap;html=1;labelBackgroundColor=none;fillColor=#09555B;strokeColor=#BAC8D3;fontColor=#EEEEEE;" parent="1" vertex="1">
          <mxGeometry x="770.5" y="580" width="70" height="30" as="geometry" />
        </mxCell>
        <mxCell id="RIBBvxnIX1Z7tL-mWI6Q-2" value="" style="endArrow=none;html=1;rounded=0;entryX=0.386;entryY=1.067;entryDx=0;entryDy=0;exitX=1;exitY=0;exitDx=0;exitDy=0;entryPerimeter=0;labelBackgroundColor=none;fontColor=default;strokeColor=#0B4D6A;" parent="1" source="h5k0YEzs9gjq5X7zC4rC-47" target="RIBBvxnIX1Z7tL-mWI6Q-1" edge="1">
          <mxGeometry width="50" height="50" relative="1" as="geometry">
            <mxPoint x="537.5" y="630" as="sourcePoint" />
            <mxPoint x="587.5" y="580" as="targetPoint" />
          </mxGeometry>
        </mxCell>
        <mxCell id="RIBBvxnIX1Z7tL-mWI6Q-3" value="course_id" style="ellipse;whiteSpace=wrap;html=1;labelBackgroundColor=none;fillColor=#09555B;strokeColor=#BAC8D3;fontColor=#EEEEEE;" parent="1" vertex="1">
          <mxGeometry x="827.5" y="600" width="70" height="30" as="geometry" />
        </mxCell>
        <mxCell id="RIBBvxnIX1Z7tL-mWI6Q-4" value="" style="endArrow=none;html=1;rounded=0;entryX=0;entryY=1;entryDx=0;entryDy=0;exitX=1;exitY=0.25;exitDx=0;exitDy=0;labelBackgroundColor=none;fontColor=default;strokeColor=#0B4D6A;" parent="1" source="h5k0YEzs9gjq5X7zC4rC-47" target="RIBBvxnIX1Z7tL-mWI6Q-3" edge="1">
          <mxGeometry width="50" height="50" relative="1" as="geometry">
            <mxPoint x="537.5" y="630" as="sourcePoint" />
            <mxPoint x="587.5" y="580" as="targetPoint" />
          </mxGeometry>
        </mxCell>
        <mxCell id="RIBBvxnIX1Z7tL-mWI6Q-5" value="quiz_questions" style="rounded=0;whiteSpace=wrap;html=1;labelBackgroundColor=none;fillColor=#09555B;strokeColor=#BAC8D3;fontColor=#EEEEEE;" parent="1" vertex="1">
          <mxGeometry x="317" y="947.5" width="90" height="30" as="geometry" />
        </mxCell>
        <mxCell id="RIBBvxnIX1Z7tL-mWI6Q-11" value="&lt;u&gt;id&lt;/u&gt;" style="ellipse;whiteSpace=wrap;html=1;labelBackgroundColor=none;fillColor=#09555B;strokeColor=#BAC8D3;fontColor=#EEEEEE;" parent="1" vertex="1">
          <mxGeometry x="230" y="967.5" width="70" height="30" as="geometry" />
        </mxCell>
        <mxCell id="RIBBvxnIX1Z7tL-mWI6Q-12" value="" style="endArrow=none;html=1;rounded=0;entryX=1;entryY=0;entryDx=0;entryDy=0;exitX=0;exitY=0.5;exitDx=0;exitDy=0;labelBackgroundColor=none;fontColor=default;strokeColor=#0B4D6A;" parent="1" source="RIBBvxnIX1Z7tL-mWI6Q-5" target="RIBBvxnIX1Z7tL-mWI6Q-11" edge="1">
          <mxGeometry width="50" height="50" relative="1" as="geometry">
            <mxPoint x="460" y="927.5" as="sourcePoint" />
            <mxPoint x="510" y="877.5" as="targetPoint" />
          </mxGeometry>
        </mxCell>
        <mxCell id="RIBBvxnIX1Z7tL-mWI6Q-13" value="quiz_id" style="ellipse;whiteSpace=wrap;html=1;labelBackgroundColor=none;fillColor=#09555B;strokeColor=#BAC8D3;fontColor=#EEEEEE;" parent="1" vertex="1">
          <mxGeometry x="220" y="903.75" width="70" height="30" as="geometry" />
        </mxCell>
        <mxCell id="RIBBvxnIX1Z7tL-mWI6Q-14" value="" style="endArrow=none;html=1;rounded=0;exitX=0;exitY=0;exitDx=0;exitDy=0;labelBackgroundColor=none;fontColor=default;entryX=1;entryY=1;entryDx=0;entryDy=0;strokeColor=#0B4D6A;" parent="1" source="RIBBvxnIX1Z7tL-mWI6Q-5" target="RIBBvxnIX1Z7tL-mWI6Q-13" edge="1">
          <mxGeometry width="50" height="50" relative="1" as="geometry">
            <mxPoint x="460" y="927.5" as="sourcePoint" />
            <mxPoint x="294" y="947.5" as="targetPoint" />
          </mxGeometry>
        </mxCell>
        <mxCell id="RIBBvxnIX1Z7tL-mWI6Q-15" value="question_no" style="ellipse;whiteSpace=wrap;html=1;labelBackgroundColor=none;fillColor=#09555B;strokeColor=#BAC8D3;fontColor=#EEEEEE;" parent="1" vertex="1">
          <mxGeometry x="307" y="892.5" width="80" height="30" as="geometry" />
        </mxCell>
        <mxCell id="RIBBvxnIX1Z7tL-mWI6Q-16" value="answerA" style="ellipse;whiteSpace=wrap;html=1;labelBackgroundColor=none;fillColor=#09555B;strokeColor=#BAC8D3;fontColor=#EEEEEE;" parent="1" vertex="1">
          <mxGeometry x="427" y="903.75" width="70" height="30" as="geometry" />
        </mxCell>
        <mxCell id="RIBBvxnIX1Z7tL-mWI6Q-17" value="answerB" style="ellipse;whiteSpace=wrap;html=1;labelBackgroundColor=none;fillColor=#09555B;strokeColor=#BAC8D3;fontColor=#EEEEEE;" parent="1" vertex="1">
          <mxGeometry x="449" y="937.5" width="70" height="30" as="geometry" />
        </mxCell>
        <mxCell id="RIBBvxnIX1Z7tL-mWI6Q-18" value="answerC" style="ellipse;whiteSpace=wrap;html=1;labelBackgroundColor=none;fillColor=#09555B;strokeColor=#BAC8D3;fontColor=#EEEEEE;" parent="1" vertex="1">
          <mxGeometry x="443" y="967.5" width="70" height="30" as="geometry" />
        </mxCell>
        <mxCell id="RIBBvxnIX1Z7tL-mWI6Q-19" value="answerD" style="ellipse;whiteSpace=wrap;html=1;labelBackgroundColor=none;fillColor=#09555B;strokeColor=#BAC8D3;fontColor=#EEEEEE;" parent="1" vertex="1">
          <mxGeometry x="407" y="997.5" width="70" height="30" as="geometry" />
        </mxCell>
        <mxCell id="RIBBvxnIX1Z7tL-mWI6Q-25" value="correct_ans" style="ellipse;whiteSpace=wrap;html=1;labelBackgroundColor=none;fillColor=#09555B;strokeColor=#BAC8D3;fontColor=#EEEEEE;" parent="1" vertex="1">
          <mxGeometry x="333" y="1007.5" width="70" height="30" as="geometry" />
        </mxCell>
        <mxCell id="RIBBvxnIX1Z7tL-mWI6Q-29" value="" style="endArrow=none;html=1;rounded=0;entryX=0;entryY=1;entryDx=0;entryDy=0;exitX=0.9;exitY=0.067;exitDx=0;exitDy=0;exitPerimeter=0;labelBackgroundColor=none;fontColor=default;strokeColor=#0B4D6A;" parent="1" source="RIBBvxnIX1Z7tL-mWI6Q-5" target="RIBBvxnIX1Z7tL-mWI6Q-16" edge="1">
          <mxGeometry width="50" height="50" relative="1" as="geometry">
            <mxPoint x="460" y="927.5" as="sourcePoint" />
            <mxPoint x="510" y="877.5" as="targetPoint" />
          </mxGeometry>
        </mxCell>
        <mxCell id="RIBBvxnIX1Z7tL-mWI6Q-30" value="" style="endArrow=none;html=1;rounded=0;exitX=1;exitY=0.25;exitDx=0;exitDy=0;entryX=0;entryY=0.5;entryDx=0;entryDy=0;labelBackgroundColor=none;fontColor=default;strokeColor=#0B4D6A;" parent="1" source="RIBBvxnIX1Z7tL-mWI6Q-5" target="RIBBvxnIX1Z7tL-mWI6Q-17" edge="1">
          <mxGeometry width="50" height="50" relative="1" as="geometry">
            <mxPoint x="460" y="927.5" as="sourcePoint" />
            <mxPoint x="510" y="877.5" as="targetPoint" />
          </mxGeometry>
        </mxCell>
        <mxCell id="RIBBvxnIX1Z7tL-mWI6Q-31" value="" style="endArrow=none;html=1;rounded=0;exitX=1;exitY=0.5;exitDx=0;exitDy=0;entryX=0;entryY=0.5;entryDx=0;entryDy=0;labelBackgroundColor=none;fontColor=default;strokeColor=#0B4D6A;" parent="1" source="RIBBvxnIX1Z7tL-mWI6Q-5" target="RIBBvxnIX1Z7tL-mWI6Q-18" edge="1">
          <mxGeometry width="50" height="50" relative="1" as="geometry">
            <mxPoint x="460" y="927.5" as="sourcePoint" />
            <mxPoint x="510" y="877.5" as="targetPoint" />
          </mxGeometry>
        </mxCell>
        <mxCell id="RIBBvxnIX1Z7tL-mWI6Q-32" value="" style="endArrow=none;html=1;rounded=0;exitX=0.833;exitY=1.033;exitDx=0;exitDy=0;exitPerimeter=0;entryX=0;entryY=0;entryDx=0;entryDy=0;labelBackgroundColor=none;fontColor=default;strokeColor=#0B4D6A;" parent="1" source="RIBBvxnIX1Z7tL-mWI6Q-5" target="RIBBvxnIX1Z7tL-mWI6Q-19" edge="1">
          <mxGeometry width="50" height="50" relative="1" as="geometry">
            <mxPoint x="460" y="927.5" as="sourcePoint" />
            <mxPoint x="510" y="877.5" as="targetPoint" />
          </mxGeometry>
        </mxCell>
        <mxCell id="RIBBvxnIX1Z7tL-mWI6Q-33" value="" style="endArrow=none;html=1;rounded=0;exitX=0.5;exitY=1;exitDx=0;exitDy=0;entryX=0.5;entryY=0;entryDx=0;entryDy=0;labelBackgroundColor=none;fontColor=default;strokeColor=#0B4D6A;" parent="1" source="RIBBvxnIX1Z7tL-mWI6Q-5" target="RIBBvxnIX1Z7tL-mWI6Q-25" edge="1">
          <mxGeometry width="50" height="50" relative="1" as="geometry">
            <mxPoint x="460" y="927.5" as="sourcePoint" />
            <mxPoint x="510" y="877.5" as="targetPoint" />
          </mxGeometry>
        </mxCell>
        <mxCell id="RIBBvxnIX1Z7tL-mWI6Q-37" value="teaching_courses" style="rounded=0;whiteSpace=wrap;html=1;labelBackgroundColor=none;fillColor=#09555B;strokeColor=#BAC8D3;fontColor=#EEEEEE;" parent="1" vertex="1">
          <mxGeometry x="-198" y="720" width="103" height="30" as="geometry" />
        </mxCell>
        <mxCell id="RIBBvxnIX1Z7tL-mWI6Q-38" value="&lt;u&gt;id&lt;/u&gt;" style="ellipse;whiteSpace=wrap;html=1;labelBackgroundColor=none;fillColor=#09555B;strokeColor=#BAC8D3;fontColor=#EEEEEE;" parent="1" vertex="1">
          <mxGeometry x="-285" y="700" width="70" height="30" as="geometry" />
        </mxCell>
        <mxCell id="RIBBvxnIX1Z7tL-mWI6Q-39" value="teacher_id" style="ellipse;whiteSpace=wrap;html=1;labelBackgroundColor=none;fillColor=#09555B;strokeColor=#BAC8D3;fontColor=#EEEEEE;" parent="1" vertex="1">
          <mxGeometry x="-195.5" y="670" width="70" height="30" as="geometry" />
        </mxCell>
        <mxCell id="RIBBvxnIX1Z7tL-mWI6Q-40" value="course_id" style="ellipse;whiteSpace=wrap;html=1;labelBackgroundColor=none;fillColor=#09555B;strokeColor=#BAC8D3;fontColor=#EEEEEE;" parent="1" vertex="1">
          <mxGeometry x="-105" y="670" width="70" height="30" as="geometry" />
        </mxCell>
        <mxCell id="RIBBvxnIX1Z7tL-mWI6Q-41" value="" style="endArrow=none;html=1;rounded=0;entryX=1;entryY=1;entryDx=0;entryDy=0;exitX=0;exitY=0.5;exitDx=0;exitDy=0;labelBackgroundColor=none;fontColor=default;strokeColor=#0B4D6A;" parent="1" source="RIBBvxnIX1Z7tL-mWI6Q-37" target="RIBBvxnIX1Z7tL-mWI6Q-38" edge="1">
          <mxGeometry width="50" height="50" relative="1" as="geometry">
            <mxPoint x="-135" y="630" as="sourcePoint" />
            <mxPoint x="-55" y="580" as="targetPoint" />
          </mxGeometry>
        </mxCell>
        <mxCell id="RIBBvxnIX1Z7tL-mWI6Q-42" value="" style="endArrow=none;html=1;rounded=0;exitX=0.5;exitY=1;exitDx=0;exitDy=0;entryX=0.34;entryY=0;entryDx=0;entryDy=0;entryPerimeter=0;labelBackgroundColor=none;fontColor=default;strokeColor=#0B4D6A;" parent="1" source="RIBBvxnIX1Z7tL-mWI6Q-39" target="RIBBvxnIX1Z7tL-mWI6Q-37" edge="1">
          <mxGeometry width="50" height="50" relative="1" as="geometry">
            <mxPoint x="-105" y="630" as="sourcePoint" />
            <mxPoint x="-55" y="580" as="targetPoint" />
          </mxGeometry>
        </mxCell>
        <mxCell id="RIBBvxnIX1Z7tL-mWI6Q-43" value="" style="endArrow=none;html=1;rounded=0;entryX=0.257;entryY=1;entryDx=0;entryDy=0;entryPerimeter=0;labelBackgroundColor=none;fontColor=default;strokeColor=#0B4D6A;" parent="1" source="RIBBvxnIX1Z7tL-mWI6Q-37" target="RIBBvxnIX1Z7tL-mWI6Q-40" edge="1">
          <mxGeometry width="50" height="50" relative="1" as="geometry">
            <mxPoint x="-105" y="630" as="sourcePoint" />
            <mxPoint x="-55" y="580" as="targetPoint" />
          </mxGeometry>
        </mxCell>
        <mxCell id="RIBBvxnIX1Z7tL-mWI6Q-45" value="account_id" style="ellipse;whiteSpace=wrap;html=1;labelBackgroundColor=none;fillColor=#09555B;strokeColor=#BAC8D3;fontColor=#EEEEEE;" parent="1" vertex="1">
          <mxGeometry x="631.5" y="690" width="70" height="30" as="geometry" />
        </mxCell>
        <mxCell id="RIBBvxnIX1Z7tL-mWI6Q-46" value="" style="endArrow=none;html=1;rounded=0;entryX=0.25;entryY=1;entryDx=0;entryDy=0;exitX=1;exitY=0;exitDx=0;exitDy=0;labelBackgroundColor=none;fontColor=default;strokeColor=#0B4D6A;" parent="1" source="RIBBvxnIX1Z7tL-mWI6Q-45" target="h5k0YEzs9gjq5X7zC4rC-47" edge="1">
          <mxGeometry width="50" height="50" relative="1" as="geometry">
            <mxPoint x="516" y="740" as="sourcePoint" />
            <mxPoint x="566" y="690" as="targetPoint" />
          </mxGeometry>
        </mxCell>
        <mxCell id="RIBBvxnIX1Z7tL-mWI6Q-48" value="account_id" style="ellipse;whiteSpace=wrap;html=1;labelBackgroundColor=none;fillColor=#09555B;strokeColor=#BAC8D3;fontColor=#EEEEEE;" parent="1" vertex="1">
          <mxGeometry x="120" y="440" width="70" height="30" as="geometry" />
        </mxCell>
        <mxCell id="RIBBvxnIX1Z7tL-mWI6Q-49" value="" style="endArrow=none;html=1;rounded=0;entryX=1;entryY=0.75;entryDx=0;entryDy=0;labelBackgroundColor=none;fontColor=default;strokeColor=#0B4D6A;" parent="1" source="RIBBvxnIX1Z7tL-mWI6Q-48" target="h5k0YEzs9gjq5X7zC4rC-18" edge="1">
          <mxGeometry width="50" height="50" relative="1" as="geometry">
            <mxPoint x="120" y="530" as="sourcePoint" />
            <mxPoint x="170" y="480" as="targetPoint" />
          </mxGeometry>
        </mxCell>
        <mxCell id="RIBBvxnIX1Z7tL-mWI6Q-52" value="" style="rhombus;whiteSpace=wrap;html=1;rotation=40;labelBackgroundColor=none;fillColor=#09555B;strokeColor=#BAC8D3;fontColor=#EEEEEE;" parent="1" vertex="1">
          <mxGeometry x="177" y="530" width="80" height="40" as="geometry" />
        </mxCell>
        <mxCell id="RIBBvxnIX1Z7tL-mWI6Q-53" value="" style="endArrow=none;html=1;rounded=0;entryX=1;entryY=0.75;entryDx=0;entryDy=0;exitX=0;exitY=0.5;exitDx=0;exitDy=0;labelBackgroundColor=none;fontColor=default;strokeColor=#0B4D6A;" parent="1" source="RIBBvxnIX1Z7tL-mWI6Q-52" target="h5k0YEzs9gjq5X7zC4rC-18" edge="1">
          <mxGeometry width="50" height="50" relative="1" as="geometry">
            <mxPoint x="120" y="630" as="sourcePoint" />
            <mxPoint x="170" y="580" as="targetPoint" />
          </mxGeometry>
        </mxCell>
        <mxCell id="RIBBvxnIX1Z7tL-mWI6Q-54" value="" style="endArrow=none;html=1;rounded=0;entryX=0;entryY=0;entryDx=0;entryDy=0;exitX=1;exitY=0.5;exitDx=0;exitDy=0;labelBackgroundColor=none;fontColor=default;strokeColor=#0B4D6A;" parent="1" source="RIBBvxnIX1Z7tL-mWI6Q-52" target="h5k0YEzs9gjq5X7zC4rC-40" edge="1">
          <mxGeometry width="50" height="50" relative="1" as="geometry">
            <mxPoint x="120" y="630" as="sourcePoint" />
            <mxPoint x="170" y="580" as="targetPoint" />
          </mxGeometry>
        </mxCell>
        <mxCell id="RIBBvxnIX1Z7tL-mWI6Q-55" value="M" style="text;html=1;align=center;verticalAlign=middle;whiteSpace=wrap;rounded=0;fillColor=none;rotation=45;labelBackgroundColor=none;strokeColor=none;" parent="1" vertex="1">
          <mxGeometry x="161.5" y="500" width="60" height="30" as="geometry" />
        </mxCell>
        <mxCell id="RIBBvxnIX1Z7tL-mWI6Q-56" value="M" style="text;html=1;align=center;verticalAlign=middle;whiteSpace=wrap;rounded=0;fillColor=none;rotation=35;labelBackgroundColor=none;strokeColor=none;" parent="1" vertex="1">
          <mxGeometry x="230" y="555" width="60" height="30" as="geometry" />
        </mxCell>
        <mxCell id="RIBBvxnIX1Z7tL-mWI6Q-57" value="" style="rhombus;whiteSpace=wrap;html=1;rotation=0;labelBackgroundColor=none;fillColor=#09555B;strokeColor=#BAC8D3;fontColor=#EEEEEE;" parent="1" vertex="1">
          <mxGeometry x="200" y="415" width="63" height="25" as="geometry" />
        </mxCell>
        <mxCell id="RIBBvxnIX1Z7tL-mWI6Q-58" value="" style="endArrow=none;html=1;rounded=0;entryX=1;entryY=0.5;entryDx=0;entryDy=0;exitX=0;exitY=0.5;exitDx=0;exitDy=0;labelBackgroundColor=none;fontColor=default;strokeColor=#0B4D6A;" parent="1" source="RIBBvxnIX1Z7tL-mWI6Q-57" target="h5k0YEzs9gjq5X7zC4rC-18" edge="1">
          <mxGeometry width="50" height="50" relative="1" as="geometry">
            <mxPoint x="410" y="530" as="sourcePoint" />
            <mxPoint x="460" y="480" as="targetPoint" />
          </mxGeometry>
        </mxCell>
        <mxCell id="RIBBvxnIX1Z7tL-mWI6Q-59" value="" style="endArrow=none;html=1;rounded=0;entryX=1;entryY=0.5;entryDx=0;entryDy=0;exitX=0;exitY=0.5;exitDx=0;exitDy=0;labelBackgroundColor=none;fontColor=default;strokeColor=#0B4D6A;" parent="1" source="h5k0YEzs9gjq5X7zC4rC-1" target="RIBBvxnIX1Z7tL-mWI6Q-57" edge="1">
          <mxGeometry width="50" height="50" relative="1" as="geometry">
            <mxPoint x="333" y="450" as="sourcePoint" />
            <mxPoint x="210" y="452" as="targetPoint" />
          </mxGeometry>
        </mxCell>
        <mxCell id="RIBBvxnIX1Z7tL-mWI6Q-60" value="1" style="text;html=1;align=center;verticalAlign=middle;whiteSpace=wrap;rounded=0;fillColor=none;rotation=0;labelBackgroundColor=none;strokeColor=none;" parent="1" vertex="1">
          <mxGeometry x="177" y="400" width="60" height="30" as="geometry" />
        </mxCell>
        <mxCell id="RIBBvxnIX1Z7tL-mWI6Q-61" value="1" style="text;html=1;align=center;verticalAlign=middle;whiteSpace=wrap;rounded=0;fillColor=none;rotation=0;labelBackgroundColor=none;strokeColor=none;" parent="1" vertex="1">
          <mxGeometry x="230" y="400" width="60" height="30" as="geometry" />
        </mxCell>
        <mxCell id="RIBBvxnIX1Z7tL-mWI6Q-62" value="" style="rhombus;whiteSpace=wrap;html=1;rotation=39;labelBackgroundColor=none;fillColor=#09555B;strokeColor=#BAC8D3;fontColor=#EEEEEE;" parent="1" vertex="1">
          <mxGeometry x="514.25" y="490" width="63" height="25" as="geometry" />
        </mxCell>
        <mxCell id="RIBBvxnIX1Z7tL-mWI6Q-63" value="" style="endArrow=none;html=1;rounded=0;entryX=1;entryY=0.5;entryDx=0;entryDy=0;exitX=0;exitY=0.5;exitDx=0;exitDy=0;labelBackgroundColor=none;fontColor=default;strokeColor=#0B4D6A;" parent="1" source="RIBBvxnIX1Z7tL-mWI6Q-62" target="h5k0YEzs9gjq5X7zC4rC-1" edge="1">
          <mxGeometry width="50" height="50" relative="1" as="geometry">
            <mxPoint x="410" y="530" as="sourcePoint" />
            <mxPoint x="460" y="480" as="targetPoint" />
          </mxGeometry>
        </mxCell>
        <mxCell id="RIBBvxnIX1Z7tL-mWI6Q-65" value="1" style="text;html=1;align=center;verticalAlign=middle;whiteSpace=wrap;rounded=0;rotation=25;labelBackgroundColor=none;fillColor=none;strokeColor=none;" parent="1" vertex="1">
          <mxGeometry x="497" y="460" width="60" height="30" as="geometry" />
        </mxCell>
        <mxCell id="RIBBvxnIX1Z7tL-mWI6Q-66" value="1" style="text;html=1;align=center;verticalAlign=middle;whiteSpace=wrap;rounded=0;fillColor=none;rotation=30;labelBackgroundColor=none;strokeColor=none;" parent="1" vertex="1">
          <mxGeometry x="547" y="490" width="60" height="30" as="geometry" />
        </mxCell>
        <mxCell id="RIBBvxnIX1Z7tL-mWI6Q-67" value="" style="rhombus;whiteSpace=wrap;html=1;rotation=-30;labelBackgroundColor=none;fillColor=#09555B;strokeColor=#BAC8D3;fontColor=#EEEEEE;" parent="1" vertex="1">
          <mxGeometry x="-152" y="485" width="63" height="25" as="geometry" />
        </mxCell>
        <mxCell id="RIBBvxnIX1Z7tL-mWI6Q-68" value="" style="endArrow=none;html=1;rounded=0;entryX=0;entryY=0.5;entryDx=0;entryDy=0;exitX=1;exitY=0.5;exitDx=0;exitDy=0;labelBackgroundColor=none;fontColor=default;strokeColor=#0B4D6A;" parent="1" source="RIBBvxnIX1Z7tL-mWI6Q-67" target="h5k0YEzs9gjq5X7zC4rC-18" edge="1">
          <mxGeometry width="50" height="50" relative="1" as="geometry">
            <mxPoint x="-50" y="600" as="sourcePoint" />
            <mxPoint y="550" as="targetPoint" />
          </mxGeometry>
        </mxCell>
        <mxCell id="RIBBvxnIX1Z7tL-mWI6Q-69" value="" style="endArrow=none;html=1;rounded=0;exitX=1;exitY=0.5;exitDx=0;exitDy=0;entryX=0;entryY=0.5;entryDx=0;entryDy=0;labelBackgroundColor=none;fontColor=default;strokeColor=#0B4D6A;" parent="1" source="h5k0YEzs9gjq5X7zC4rC-70" target="RIBBvxnIX1Z7tL-mWI6Q-67" edge="1">
          <mxGeometry width="50" height="50" relative="1" as="geometry">
            <mxPoint x="-50" y="600" as="sourcePoint" />
            <mxPoint y="550" as="targetPoint" />
          </mxGeometry>
        </mxCell>
        <mxCell id="RIBBvxnIX1Z7tL-mWI6Q-70" value="M" style="text;html=1;align=center;verticalAlign=middle;whiteSpace=wrap;rounded=0;fillColor=none;rotation=-30;labelBackgroundColor=none;strokeColor=none;" parent="1" vertex="1">
          <mxGeometry x="-180" y="485" width="60" height="30" as="geometry" />
        </mxCell>
        <mxCell id="RIBBvxnIX1Z7tL-mWI6Q-71" value="1" style="text;html=1;align=center;verticalAlign=middle;whiteSpace=wrap;rounded=0;fillColor=none;rotation=-30;labelBackgroundColor=none;strokeColor=none;" parent="1" vertex="1">
          <mxGeometry x="-130" y="460" width="60" height="30" as="geometry" />
        </mxCell>
        <mxCell id="RIBBvxnIX1Z7tL-mWI6Q-72" value="" style="rhombus;whiteSpace=wrap;html=1;rotation=10;labelBackgroundColor=none;fillColor=#09555B;strokeColor=#BAC8D3;fontColor=#EEEEEE;" parent="1" vertex="1">
          <mxGeometry x="60" y="570" width="80" height="40" as="geometry" />
        </mxCell>
        <mxCell id="RIBBvxnIX1Z7tL-mWI6Q-73" value="" style="endArrow=none;html=1;rounded=0;entryX=1;entryY=0.75;entryDx=0;entryDy=0;exitX=0;exitY=0.5;exitDx=0;exitDy=0;labelBackgroundColor=none;fontColor=default;strokeColor=#0B4D6A;" parent="1" source="RIBBvxnIX1Z7tL-mWI6Q-72" target="h5k0YEzs9gjq5X7zC4rC-70" edge="1">
          <mxGeometry width="50" height="50" relative="1" as="geometry">
            <mxPoint x="-50" y="600" as="sourcePoint" />
            <mxPoint y="550" as="targetPoint" />
          </mxGeometry>
        </mxCell>
        <mxCell id="RIBBvxnIX1Z7tL-mWI6Q-74" value="" style="endArrow=none;html=1;rounded=0;entryX=0;entryY=0.5;entryDx=0;entryDy=0;exitX=1;exitY=0.5;exitDx=0;exitDy=0;labelBackgroundColor=none;fontColor=default;strokeColor=#0B4D6A;" parent="1" source="RIBBvxnIX1Z7tL-mWI6Q-72" target="h5k0YEzs9gjq5X7zC4rC-40" edge="1">
          <mxGeometry width="50" height="50" relative="1" as="geometry">
            <mxPoint x="-50" y="600" as="sourcePoint" />
            <mxPoint y="550" as="targetPoint" />
          </mxGeometry>
        </mxCell>
        <mxCell id="RIBBvxnIX1Z7tL-mWI6Q-75" value="M" style="text;html=1;align=center;verticalAlign=middle;whiteSpace=wrap;rounded=0;fillColor=none;rotation=10;labelBackgroundColor=none;strokeColor=none;" parent="1" vertex="1">
          <mxGeometry x="40" y="550" width="60" height="30" as="geometry" />
        </mxCell>
        <mxCell id="RIBBvxnIX1Z7tL-mWI6Q-76" value="M" style="text;html=1;align=center;verticalAlign=middle;whiteSpace=wrap;rounded=0;fillColor=none;rotation=10;labelBackgroundColor=none;strokeColor=none;" parent="1" vertex="1">
          <mxGeometry x="125" y="570" width="60" height="30" as="geometry" />
        </mxCell>
        <mxCell id="RIBBvxnIX1Z7tL-mWI6Q-77" value="" style="endArrow=none;html=1;rounded=0;entryX=0.5;entryY=1;entryDx=0;entryDy=0;exitX=0.6;exitY=0.059;exitDx=0;exitDy=0;exitPerimeter=0;labelBackgroundColor=none;fontColor=default;strokeColor=#0B4D6A;" parent="1" source="RIBBvxnIX1Z7tL-mWI6Q-5" target="RIBBvxnIX1Z7tL-mWI6Q-15" edge="1">
          <mxGeometry width="50" height="50" relative="1" as="geometry">
            <mxPoint x="224" y="887.5" as="sourcePoint" />
            <mxPoint x="274" y="837.5" as="targetPoint" />
          </mxGeometry>
        </mxCell>
        <mxCell id="RIBBvxnIX1Z7tL-mWI6Q-80" value="name_of_quiz" style="ellipse;whiteSpace=wrap;html=1;labelBackgroundColor=none;fillColor=#09555B;strokeColor=#BAC8D3;fontColor=#EEEEEE;" parent="1" vertex="1">
          <mxGeometry x="110" y="835" width="80" height="30" as="geometry" />
        </mxCell>
        <mxCell id="RIBBvxnIX1Z7tL-mWI6Q-81" value="" style="endArrow=none;html=1;rounded=0;entryX=0.321;entryY=1.058;entryDx=0;entryDy=0;exitX=0.5;exitY=0;exitDx=0;exitDy=0;labelBackgroundColor=none;fontColor=default;strokeColor=#0B4D6A;entryPerimeter=0;" parent="1" source="RIBBvxnIX1Z7tL-mWI6Q-80" target="h5k0YEzs9gjq5X7zC4rC-26" edge="1">
          <mxGeometry width="50" height="50" relative="1" as="geometry">
            <mxPoint x="230" y="830" as="sourcePoint" />
            <mxPoint x="280" y="780" as="targetPoint" />
          </mxGeometry>
        </mxCell>
        <mxCell id="RIBBvxnIX1Z7tL-mWI6Q-83" value="subject" style="ellipse;whiteSpace=wrap;html=1;labelBackgroundColor=none;fillColor=#09555B;strokeColor=#BAC8D3;fontColor=#EEEEEE;" parent="1" vertex="1">
          <mxGeometry x="449" y="640" width="70" height="30" as="geometry" />
        </mxCell>
        <mxCell id="RIBBvxnIX1Z7tL-mWI6Q-84" value="" style="endArrow=none;html=1;rounded=0;exitX=1;exitY=0.5;exitDx=0;exitDy=0;entryX=0;entryY=0.5;entryDx=0;entryDy=0;labelBackgroundColor=none;fontColor=default;strokeColor=#0B4D6A;" parent="1" source="h5k0YEzs9gjq5X7zC4rC-40" target="RIBBvxnIX1Z7tL-mWI6Q-83" edge="1">
          <mxGeometry width="50" height="50" relative="1" as="geometry">
            <mxPoint x="390" y="640" as="sourcePoint" />
            <mxPoint x="440" y="590" as="targetPoint" />
          </mxGeometry>
        </mxCell>
        <mxCell id="tZGeiX8grV9DUVZ72_bN-1" value="quizes_attended" style="rounded=0;whiteSpace=wrap;html=1;labelBackgroundColor=none;fillColor=#09555B;strokeColor=#BAC8D3;fontColor=#EEEEEE;" parent="1" vertex="1">
          <mxGeometry x="-424.5" y="870" width="104.5" height="30" as="geometry" />
        </mxCell>
        <mxCell id="tZGeiX8grV9DUVZ72_bN-2" value="&lt;u&gt;id&lt;/u&gt;" style="ellipse;whiteSpace=wrap;html=1;labelBackgroundColor=none;fillColor=#09555B;strokeColor=#BAC8D3;fontColor=#EEEEEE;" parent="1" vertex="1">
          <mxGeometry x="-300" y="870" width="70" height="30" as="geometry" />
        </mxCell>
        <mxCell id="tZGeiX8grV9DUVZ72_bN-3" value="student_id" style="ellipse;whiteSpace=wrap;html=1;labelBackgroundColor=none;fillColor=#09555B;strokeColor=#BAC8D3;fontColor=#EEEEEE;" parent="1" vertex="1">
          <mxGeometry x="-504.5" y="830" width="70" height="30" as="geometry" />
        </mxCell>
        <mxCell id="tZGeiX8grV9DUVZ72_bN-4" value="quiz_id" style="ellipse;whiteSpace=wrap;html=1;labelBackgroundColor=none;fillColor=#09555B;strokeColor=#BAC8D3;fontColor=#EEEEEE;" parent="1" vertex="1">
          <mxGeometry x="-424.5" y="820" width="70" height="30" as="geometry" />
        </mxCell>
        <mxCell id="tZGeiX8grV9DUVZ72_bN-5" value="points" style="ellipse;whiteSpace=wrap;html=1;labelBackgroundColor=none;fillColor=#09555B;strokeColor=#BAC8D3;fontColor=#EEEEEE;" parent="1" vertex="1">
          <mxGeometry x="257" y="1007.5" width="70" height="30" as="geometry" />
        </mxCell>
        <mxCell id="tZGeiX8grV9DUVZ72_bN-8" value="" style="endArrow=none;html=1;rounded=0;labelBackgroundColor=none;fontColor=default;strokeColor=#0B4D6A;" parent="1" source="RIBBvxnIX1Z7tL-mWI6Q-5" target="tZGeiX8grV9DUVZ72_bN-5" edge="1">
          <mxGeometry width="50" height="50" relative="1" as="geometry">
            <mxPoint x="372" y="988" as="sourcePoint" />
            <mxPoint x="378" y="1018" as="targetPoint" />
          </mxGeometry>
        </mxCell>
        <mxCell id="tZGeiX8grV9DUVZ72_bN-9" value="points_earned" style="ellipse;whiteSpace=wrap;html=1;labelBackgroundColor=none;fillColor=#09555B;strokeColor=#BAC8D3;fontColor=#EEEEEE;" parent="1" vertex="1">
          <mxGeometry x="-337.75" y="822.5" width="88.5" height="25" as="geometry" />
        </mxCell>
        <mxCell id="tZGeiX8grV9DUVZ72_bN-11" value="" style="endArrow=none;html=1;rounded=0;entryX=0.707;entryY=0.967;entryDx=0;entryDy=0;entryPerimeter=0;exitX=0;exitY=0.5;exitDx=0;exitDy=0;labelBackgroundColor=none;fontColor=default;strokeColor=#0B4D6A;" parent="1" source="tZGeiX8grV9DUVZ72_bN-1" target="tZGeiX8grV9DUVZ72_bN-3" edge="1">
          <mxGeometry width="50" height="50" relative="1" as="geometry">
            <mxPoint x="-430" y="890" as="sourcePoint" />
            <mxPoint x="-380" y="840" as="targetPoint" />
          </mxGeometry>
        </mxCell>
        <mxCell id="tZGeiX8grV9DUVZ72_bN-12" value="" style="endArrow=none;html=1;rounded=0;entryX=0.364;entryY=1.033;entryDx=0;entryDy=0;entryPerimeter=0;exitX=0.321;exitY=-0.067;exitDx=0;exitDy=0;exitPerimeter=0;labelBackgroundColor=none;fontColor=default;strokeColor=#0B4D6A;" parent="1" source="tZGeiX8grV9DUVZ72_bN-1" target="tZGeiX8grV9DUVZ72_bN-4" edge="1">
          <mxGeometry width="50" height="50" relative="1" as="geometry">
            <mxPoint x="-430" y="890" as="sourcePoint" />
            <mxPoint x="-380" y="840" as="targetPoint" />
          </mxGeometry>
        </mxCell>
        <mxCell id="tZGeiX8grV9DUVZ72_bN-14" value="" style="endArrow=none;html=1;rounded=0;entryX=0.299;entryY=0.92;entryDx=0;entryDy=0;entryPerimeter=0;exitX=0.876;exitY=-0.067;exitDx=0;exitDy=0;exitPerimeter=0;labelBackgroundColor=none;fontColor=default;strokeColor=#0B4D6A;" parent="1" source="tZGeiX8grV9DUVZ72_bN-1" target="tZGeiX8grV9DUVZ72_bN-9" edge="1">
          <mxGeometry width="50" height="50" relative="1" as="geometry">
            <mxPoint x="-430" y="890" as="sourcePoint" />
            <mxPoint x="-380" y="840" as="targetPoint" />
          </mxGeometry>
        </mxCell>
        <mxCell id="tZGeiX8grV9DUVZ72_bN-16" value="" style="endArrow=none;html=1;rounded=0;exitX=1;exitY=0.5;exitDx=0;exitDy=0;entryX=0.143;entryY=0.667;entryDx=0;entryDy=0;entryPerimeter=0;labelBackgroundColor=none;fontColor=default;strokeColor=#0B4D6A;" parent="1" source="tZGeiX8grV9DUVZ72_bN-1" target="tZGeiX8grV9DUVZ72_bN-2" edge="1">
          <mxGeometry width="50" height="50" relative="1" as="geometry">
            <mxPoint x="-430" y="890" as="sourcePoint" />
            <mxPoint x="-380" y="840" as="targetPoint" />
          </mxGeometry>
        </mxCell>
        <mxCell id="tZGeiX8grV9DUVZ72_bN-17" value="grades_of_student" style="rounded=0;whiteSpace=wrap;html=1;labelBackgroundColor=none;fillColor=#09555B;strokeColor=#BAC8D3;fontColor=#EEEEEE;" parent="1" vertex="1">
          <mxGeometry x="-120" y="910" width="110" height="30" as="geometry" />
        </mxCell>
        <mxCell id="tZGeiX8grV9DUVZ72_bN-18" value="student_id" style="ellipse;whiteSpace=wrap;html=1;labelBackgroundColor=none;fillColor=#09555B;strokeColor=#BAC8D3;fontColor=#EEEEEE;" parent="1" vertex="1">
          <mxGeometry x="-175" y="865" width="70" height="30" as="geometry" />
        </mxCell>
        <mxCell id="tZGeiX8grV9DUVZ72_bN-20" value="grade" style="ellipse;whiteSpace=wrap;html=1;labelBackgroundColor=none;fillColor=#09555B;strokeColor=#BAC8D3;fontColor=#EEEEEE;" parent="1" vertex="1">
          <mxGeometry x="-63" y="860" width="70" height="30" as="geometry" />
        </mxCell>
        <mxCell id="UGbL4jpkUDSL8BNwM7MM-2" value="admins" style="rounded=0;whiteSpace=wrap;html=1;labelBackgroundColor=none;fillColor=#09555B;strokeColor=#BAC8D3;fontColor=#EEEEEE;" parent="1" vertex="1">
          <mxGeometry x="690.5" y="380" width="70" height="30" as="geometry" />
        </mxCell>
        <mxCell id="UGbL4jpkUDSL8BNwM7MM-3" value="&lt;u&gt;id&lt;/u&gt;" style="ellipse;whiteSpace=wrap;html=1;labelBackgroundColor=none;fillColor=#09555B;strokeColor=#BAC8D3;fontColor=#EEEEEE;" parent="1" vertex="1">
          <mxGeometry x="593" y="350" width="70" height="30" as="geometry" />
        </mxCell>
        <mxCell id="UGbL4jpkUDSL8BNwM7MM-4" value="full_name" style="ellipse;whiteSpace=wrap;html=1;labelBackgroundColor=none;fillColor=#09555B;strokeColor=#BAC8D3;fontColor=#EEEEEE;" parent="1" vertex="1">
          <mxGeometry x="650" y="320" width="70" height="30" as="geometry" />
        </mxCell>
        <mxCell id="UGbL4jpkUDSL8BNwM7MM-5" value="phone_no" style="ellipse;whiteSpace=wrap;html=1;labelBackgroundColor=none;fillColor=#09555B;strokeColor=#BAC8D3;fontColor=#EEEEEE;" parent="1" vertex="1">
          <mxGeometry x="727.5" y="330" width="70" height="30" as="geometry" />
        </mxCell>
        <mxCell id="UGbL4jpkUDSL8BNwM7MM-7" value="email" style="ellipse;whiteSpace=wrap;html=1;labelBackgroundColor=none;fillColor=#09555B;strokeColor=#BAC8D3;fontColor=#EEEEEE;" parent="1" vertex="1">
          <mxGeometry x="797.5" y="340" width="70" height="30" as="geometry" />
        </mxCell>
        <mxCell id="UGbL4jpkUDSL8BNwM7MM-8" value="account_id" style="ellipse;whiteSpace=wrap;html=1;labelBackgroundColor=none;fillColor=#09555B;strokeColor=#BAC8D3;fontColor=#EEEEEE;" parent="1" vertex="1">
          <mxGeometry x="792" y="380" width="70" height="30" as="geometry" />
        </mxCell>
        <mxCell id="UGbL4jpkUDSL8BNwM7MM-9" value="country" style="ellipse;whiteSpace=wrap;html=1;labelBackgroundColor=none;fillColor=#09555B;strokeColor=#BAC8D3;fontColor=#EEEEEE;" parent="1" vertex="1">
          <mxGeometry x="742.5" y="420" width="70" height="30" as="geometry" />
        </mxCell>
        <mxCell id="UGbL4jpkUDSL8BNwM7MM-10" value="sex" style="ellipse;whiteSpace=wrap;html=1;labelBackgroundColor=none;fillColor=#09555B;strokeColor=#BAC8D3;fontColor=#EEEEEE;" parent="1" vertex="1">
          <mxGeometry x="685.5" y="440" width="70" height="30" as="geometry" />
        </mxCell>
        <mxCell id="UGbL4jpkUDSL8BNwM7MM-11" value="" style="endArrow=none;html=1;rounded=0;strokeColor=#0B4D6A;entryX=0.25;entryY=1;entryDx=0;entryDy=0;" parent="1" source="UGbL4jpkUDSL8BNwM7MM-10" target="UGbL4jpkUDSL8BNwM7MM-2" edge="1">
          <mxGeometry width="50" height="50" relative="1" as="geometry">
            <mxPoint x="740.5" y="530" as="sourcePoint" />
            <mxPoint x="790.5" y="480" as="targetPoint" />
          </mxGeometry>
        </mxCell>
        <mxCell id="UGbL4jpkUDSL8BNwM7MM-12" value="" style="endArrow=none;html=1;rounded=0;strokeColor=#0B4D6A;entryX=0.75;entryY=1;entryDx=0;entryDy=0;" parent="1" source="UGbL4jpkUDSL8BNwM7MM-9" target="UGbL4jpkUDSL8BNwM7MM-2" edge="1">
          <mxGeometry width="50" height="50" relative="1" as="geometry">
            <mxPoint x="740.5" y="530" as="sourcePoint" />
            <mxPoint x="790.5" y="480" as="targetPoint" />
          </mxGeometry>
        </mxCell>
        <mxCell id="UGbL4jpkUDSL8BNwM7MM-13" value="" style="endArrow=none;html=1;rounded=0;strokeColor=#0B4D6A;entryX=1;entryY=0.5;entryDx=0;entryDy=0;exitX=0;exitY=0.5;exitDx=0;exitDy=0;" parent="1" source="UGbL4jpkUDSL8BNwM7MM-8" target="UGbL4jpkUDSL8BNwM7MM-2" edge="1">
          <mxGeometry width="50" height="50" relative="1" as="geometry">
            <mxPoint x="740.5" y="530" as="sourcePoint" />
            <mxPoint x="790.5" y="480" as="targetPoint" />
          </mxGeometry>
        </mxCell>
        <mxCell id="UGbL4jpkUDSL8BNwM7MM-14" value="" style="endArrow=none;html=1;rounded=0;strokeColor=#0B4D6A;entryX=0;entryY=1;entryDx=0;entryDy=0;exitX=1;exitY=0.25;exitDx=0;exitDy=0;" parent="1" source="UGbL4jpkUDSL8BNwM7MM-2" target="UGbL4jpkUDSL8BNwM7MM-7" edge="1">
          <mxGeometry width="50" height="50" relative="1" as="geometry">
            <mxPoint x="740.5" y="530" as="sourcePoint" />
            <mxPoint x="790.5" y="480" as="targetPoint" />
          </mxGeometry>
        </mxCell>
        <mxCell id="UGbL4jpkUDSL8BNwM7MM-15" value="" style="endArrow=none;html=1;rounded=0;strokeColor=#0B4D6A;entryX=0.5;entryY=1;entryDx=0;entryDy=0;exitX=0.75;exitY=0;exitDx=0;exitDy=0;" parent="1" source="UGbL4jpkUDSL8BNwM7MM-2" target="UGbL4jpkUDSL8BNwM7MM-5" edge="1">
          <mxGeometry width="50" height="50" relative="1" as="geometry">
            <mxPoint x="740.5" y="530" as="sourcePoint" />
            <mxPoint x="790.5" y="480" as="targetPoint" />
          </mxGeometry>
        </mxCell>
        <mxCell id="UGbL4jpkUDSL8BNwM7MM-16" value="" style="endArrow=none;html=1;rounded=0;strokeColor=#0B4D6A;entryX=1;entryY=1;entryDx=0;entryDy=0;" parent="1" source="UGbL4jpkUDSL8BNwM7MM-2" target="UGbL4jpkUDSL8BNwM7MM-4" edge="1">
          <mxGeometry width="50" height="50" relative="1" as="geometry">
            <mxPoint x="740.5" y="530" as="sourcePoint" />
            <mxPoint x="790.5" y="480" as="targetPoint" />
          </mxGeometry>
        </mxCell>
        <mxCell id="UGbL4jpkUDSL8BNwM7MM-17" value="" style="endArrow=none;html=1;rounded=0;strokeColor=#0B4D6A;entryX=1;entryY=0.5;entryDx=0;entryDy=0;exitX=0;exitY=0.5;exitDx=0;exitDy=0;" parent="1" source="UGbL4jpkUDSL8BNwM7MM-2" target="UGbL4jpkUDSL8BNwM7MM-3" edge="1">
          <mxGeometry width="50" height="50" relative="1" as="geometry">
            <mxPoint x="740.5" y="530" as="sourcePoint" />
            <mxPoint x="790.5" y="480" as="targetPoint" />
          </mxGeometry>
        </mxCell>
        <mxCell id="UGbL4jpkUDSL8BNwM7MM-19" value="color" style="ellipse;whiteSpace=wrap;html=1;labelBackgroundColor=none;fillColor=#09555B;strokeColor=#BAC8D3;fontColor=#EEEEEE;" parent="1" vertex="1">
          <mxGeometry x="-250" y="580" width="70" height="30" as="geometry" />
        </mxCell>
        <mxCell id="UGbL4jpkUDSL8BNwM7MM-20" value="" style="endArrow=none;html=1;rounded=0;strokeColor=#0B4D6A;entryX=0.75;entryY=1;entryDx=0;entryDy=0;" parent="1" source="UGbL4jpkUDSL8BNwM7MM-19" target="h5k0YEzs9gjq5X7zC4rC-70" edge="1">
          <mxGeometry width="50" height="50" relative="1" as="geometry">
            <mxPoint x="-70" y="570" as="sourcePoint" />
            <mxPoint x="-20" y="520" as="targetPoint" />
          </mxGeometry>
        </mxCell>
        <mxCell id="UGbL4jpkUDSL8BNwM7MM-24" value="" style="rhombus;whiteSpace=wrap;html=1;strokeColor=#BAC8D3;fontColor=#EEEEEE;fillColor=#09555B;rotation=-7;" parent="1" vertex="1">
          <mxGeometry x="557" y="410" width="57" height="30" as="geometry" />
        </mxCell>
        <mxCell id="UGbL4jpkUDSL8BNwM7MM-25" value="" style="endArrow=none;html=1;rounded=0;strokeColor=#0B4D6A;exitX=0;exitY=0.5;exitDx=0;exitDy=0;entryX=1;entryY=0.25;entryDx=0;entryDy=0;" parent="1" source="UGbL4jpkUDSL8BNwM7MM-24" target="h5k0YEzs9gjq5X7zC4rC-1" edge="1">
          <mxGeometry width="50" height="50" relative="1" as="geometry">
            <mxPoint x="320" y="470" as="sourcePoint" />
            <mxPoint x="370" y="420" as="targetPoint" />
          </mxGeometry>
        </mxCell>
        <mxCell id="UGbL4jpkUDSL8BNwM7MM-26" value="" style="endArrow=none;html=1;rounded=0;strokeColor=#0B4D6A;exitX=0.1;exitY=0.933;exitDx=0;exitDy=0;exitPerimeter=0;entryX=1;entryY=0.5;entryDx=0;entryDy=0;" parent="1" source="UGbL4jpkUDSL8BNwM7MM-2" target="UGbL4jpkUDSL8BNwM7MM-24" edge="1">
          <mxGeometry width="50" height="50" relative="1" as="geometry">
            <mxPoint x="398.5" y="540" as="sourcePoint" />
            <mxPoint x="448.5" y="490" as="targetPoint" />
          </mxGeometry>
        </mxCell>
        <mxCell id="UGbL4jpkUDSL8BNwM7MM-27" value="1" style="text;html=1;align=center;verticalAlign=middle;whiteSpace=wrap;rounded=0;rotation=-5;labelBackgroundColor=none;fillColor=none;strokeColor=none;" parent="1" vertex="1">
          <mxGeometry x="523.75" y="400" width="60" height="30" as="geometry" />
        </mxCell>
        <mxCell id="UGbL4jpkUDSL8BNwM7MM-28" value="1" style="text;html=1;align=center;verticalAlign=middle;whiteSpace=wrap;rounded=0;rotation=0;labelBackgroundColor=none;fillColor=none;strokeColor=none;" parent="1" vertex="1">
          <mxGeometry x="590" y="400" width="60" height="30" as="geometry" />
        </mxCell>
        <mxCell id="UGbL4jpkUDSL8BNwM7MM-29" value="" style="rhombus;whiteSpace=wrap;html=1;strokeColor=#BAC8D3;fontColor=#EEEEEE;fillColor=#09555B;rotation=-45;" parent="1" vertex="1">
          <mxGeometry x="221.5" y="832.5" width="37" height="50" as="geometry" />
        </mxCell>
        <mxCell id="UGbL4jpkUDSL8BNwM7MM-30" value="" style="endArrow=none;html=1;rounded=0;strokeColor=#0B4D6A;entryX=0.75;entryY=1;entryDx=0;entryDy=0;exitX=0.5;exitY=0;exitDx=0;exitDy=0;" parent="1" source="UGbL4jpkUDSL8BNwM7MM-29" target="h5k0YEzs9gjq5X7zC4rC-26" edge="1">
          <mxGeometry width="50" height="50" relative="1" as="geometry">
            <mxPoint x="140" y="930" as="sourcePoint" />
            <mxPoint x="190" y="880" as="targetPoint" />
          </mxGeometry>
        </mxCell>
        <mxCell id="UGbL4jpkUDSL8BNwM7MM-31" value="" style="endArrow=none;html=1;rounded=0;strokeColor=#0B4D6A;entryX=0.25;entryY=0;entryDx=0;entryDy=0;exitX=0.5;exitY=1;exitDx=0;exitDy=0;" parent="1" source="UGbL4jpkUDSL8BNwM7MM-29" target="RIBBvxnIX1Z7tL-mWI6Q-5" edge="1">
          <mxGeometry width="50" height="50" relative="1" as="geometry">
            <mxPoint x="239" y="847" as="sourcePoint" />
            <mxPoint x="177" y="810" as="targetPoint" />
          </mxGeometry>
        </mxCell>
        <mxCell id="UGbL4jpkUDSL8BNwM7MM-32" value="" style="rhombus;whiteSpace=wrap;html=1;strokeColor=#BAC8D3;fontColor=#EEEEEE;fillColor=#09555B;rotation=-120;" parent="1" vertex="1">
          <mxGeometry x="285.5" y="690" width="37" height="50" as="geometry" />
        </mxCell>
        <mxCell id="UGbL4jpkUDSL8BNwM7MM-34" value="" style="endArrow=none;html=1;rounded=0;strokeColor=#0B4D6A;entryX=0.5;entryY=0;entryDx=0;entryDy=0;exitX=1;exitY=0.25;exitDx=0;exitDy=0;" parent="1" source="h5k0YEzs9gjq5X7zC4rC-26" target="UGbL4jpkUDSL8BNwM7MM-32" edge="1">
          <mxGeometry width="50" height="50" relative="1" as="geometry">
            <mxPoint x="180" y="780" as="sourcePoint" />
            <mxPoint x="230" y="730" as="targetPoint" />
          </mxGeometry>
        </mxCell>
        <mxCell id="UGbL4jpkUDSL8BNwM7MM-35" value="" style="endArrow=none;html=1;rounded=0;strokeColor=#0B4D6A;exitX=0.25;exitY=1;exitDx=0;exitDy=0;entryX=0.5;entryY=1;entryDx=0;entryDy=0;" parent="1" source="h5k0YEzs9gjq5X7zC4rC-40" target="UGbL4jpkUDSL8BNwM7MM-32" edge="1">
          <mxGeometry width="50" height="50" relative="1" as="geometry">
            <mxPoint x="180" y="780" as="sourcePoint" />
            <mxPoint x="230" y="730" as="targetPoint" />
          </mxGeometry>
        </mxCell>
        <mxCell id="UGbL4jpkUDSL8BNwM7MM-36" value="1" style="text;html=1;align=center;verticalAlign=middle;whiteSpace=wrap;rounded=0;fillColor=none;rotation=-45;labelBackgroundColor=none;strokeColor=none;" parent="1" vertex="1">
          <mxGeometry x="295" y="680" width="60" height="30" as="geometry" />
        </mxCell>
        <mxCell id="UGbL4jpkUDSL8BNwM7MM-37" value="M" style="text;html=1;align=center;verticalAlign=middle;whiteSpace=wrap;rounded=0;fillColor=none;rotation=-45;labelBackgroundColor=none;strokeColor=none;" parent="1" vertex="1">
          <mxGeometry x="240" y="710" width="60" height="30" as="geometry" />
        </mxCell>
        <mxCell id="UGbL4jpkUDSL8BNwM7MM-38" value="M" style="text;html=1;align=center;verticalAlign=middle;whiteSpace=wrap;rounded=0;fillColor=none;rotation=45;labelBackgroundColor=none;strokeColor=none;" parent="1" vertex="1">
          <mxGeometry x="240" y="852.5" width="60" height="30" as="geometry" />
        </mxCell>
        <mxCell id="UGbL4jpkUDSL8BNwM7MM-39" value="1" style="text;html=1;align=center;verticalAlign=middle;whiteSpace=wrap;rounded=0;fillColor=none;rotation=30;labelBackgroundColor=none;strokeColor=none;" parent="1" vertex="1">
          <mxGeometry x="197" y="815" width="60" height="30" as="geometry" />
        </mxCell>
        <mxCell id="UGbL4jpkUDSL8BNwM7MM-40" value="" style="rhombus;whiteSpace=wrap;html=1;strokeColor=#BAC8D3;fontColor=#EEEEEE;fillColor=#09555B;rotation=45;" parent="1" vertex="1">
          <mxGeometry x="-29.5" y="630" width="80" height="30" as="geometry" />
        </mxCell>
        <mxCell id="UGbL4jpkUDSL8BNwM7MM-41" value="" style="endArrow=none;html=1;rounded=0;strokeColor=#0B4D6A;entryX=0.5;entryY=1;entryDx=0;entryDy=0;exitX=0;exitY=0.5;exitDx=0;exitDy=0;" parent="1" source="UGbL4jpkUDSL8BNwM7MM-40" target="h5k0YEzs9gjq5X7zC4rC-18" edge="1">
          <mxGeometry width="50" height="50" relative="1" as="geometry">
            <mxPoint x="-20" y="610" as="sourcePoint" />
            <mxPoint x="30" y="560" as="targetPoint" />
          </mxGeometry>
        </mxCell>
        <mxCell id="UGbL4jpkUDSL8BNwM7MM-42" value="" style="endArrow=none;html=1;rounded=0;strokeColor=#0B4D6A;entryX=1;entryY=0.5;entryDx=0;entryDy=0;exitX=0.167;exitY=0.043;exitDx=0;exitDy=0;exitPerimeter=0;" parent="1" source="h5k0YEzs9gjq5X7zC4rC-26" target="UGbL4jpkUDSL8BNwM7MM-40" edge="1">
          <mxGeometry width="50" height="50" relative="1" as="geometry">
            <mxPoint x="30" y="720" as="sourcePoint" />
            <mxPoint x="80" y="670" as="targetPoint" />
          </mxGeometry>
        </mxCell>
        <mxCell id="UGbL4jpkUDSL8BNwM7MM-43" value="1" style="text;html=1;align=center;verticalAlign=middle;whiteSpace=wrap;rounded=0;fillColor=none;rotation=45;labelBackgroundColor=none;strokeColor=none;" parent="1" vertex="1">
          <mxGeometry x="-29.5" y="600" width="60" height="30" as="geometry" />
        </mxCell>
        <mxCell id="UGbL4jpkUDSL8BNwM7MM-44" value="M" style="text;html=1;align=center;verticalAlign=middle;whiteSpace=wrap;rounded=0;fillColor=none;rotation=45;labelBackgroundColor=none;strokeColor=none;" parent="1" vertex="1">
          <mxGeometry x="17" y="650" width="60" height="30" as="geometry" />
        </mxCell>
        <mxCell id="UGbL4jpkUDSL8BNwM7MM-55" value="" style="endArrow=none;html=1;rounded=0;strokeColor=#0B4D6A;entryX=0.175;entryY=-0.022;entryDx=0;entryDy=0;entryPerimeter=0;exitX=1;exitY=0.5;exitDx=0;exitDy=0;" parent="1" source="RIBBvxnIX1Z7tL-mWI6Q-62" target="h5k0YEzs9gjq5X7zC4rC-47" edge="1">
          <mxGeometry width="50" height="50" relative="1" as="geometry">
            <mxPoint x="440" y="580" as="sourcePoint" />
            <mxPoint x="490" y="530" as="targetPoint" />
          </mxGeometry>
        </mxCell>
        <mxCell id="4w2hhaubySZXChtMcjH1-2" value="question" style="ellipse;whiteSpace=wrap;html=1;labelBackgroundColor=none;fillColor=#09555B;strokeColor=#BAC8D3;fontColor=#EEEEEE;" vertex="1" parent="1">
          <mxGeometry x="377" y="875" width="80" height="30" as="geometry" />
        </mxCell>
        <mxCell id="4w2hhaubySZXChtMcjH1-3" value="" style="endArrow=none;html=1;rounded=0;entryX=0.5;entryY=1;entryDx=0;entryDy=0;exitX=0.75;exitY=0;exitDx=0;exitDy=0;" edge="1" parent="1" source="RIBBvxnIX1Z7tL-mWI6Q-5" target="4w2hhaubySZXChtMcjH1-2">
          <mxGeometry width="50" height="50" relative="1" as="geometry">
            <mxPoint x="260" y="960" as="sourcePoint" />
            <mxPoint x="310" y="910" as="targetPoint" />
          </mxGeometry>
        </mxCell>
        <mxCell id="4w2hhaubySZXChtMcjH1-4" value="quizes_for_course" style="rounded=0;whiteSpace=wrap;html=1;labelBackgroundColor=none;fillColor=#09555B;strokeColor=#BAC8D3;fontColor=#EEEEEE;" vertex="1" parent="1">
          <mxGeometry x="-425" y="687.5" width="105" height="30" as="geometry" />
        </mxCell>
        <mxCell id="4w2hhaubySZXChtMcjH1-5" value="&lt;u&gt;id&lt;/u&gt;" style="ellipse;whiteSpace=wrap;html=1;labelBackgroundColor=none;fillColor=#09555B;strokeColor=#BAC8D3;fontColor=#EEEEEE;" vertex="1" parent="1">
          <mxGeometry x="-345.5" y="740" width="70" height="30" as="geometry" />
        </mxCell>
        <mxCell id="4w2hhaubySZXChtMcjH1-6" value="quiz_id" style="ellipse;whiteSpace=wrap;html=1;labelBackgroundColor=none;fillColor=#09555B;strokeColor=#BAC8D3;fontColor=#EEEEEE;" vertex="1" parent="1">
          <mxGeometry x="-460" y="642.5" width="70" height="30" as="geometry" />
        </mxCell>
        <mxCell id="4w2hhaubySZXChtMcjH1-7" value="course_id" style="ellipse;whiteSpace=wrap;html=1;labelBackgroundColor=none;fillColor=#09555B;strokeColor=#BAC8D3;fontColor=#EEEEEE;" vertex="1" parent="1">
          <mxGeometry x="-360" y="642.5" width="70" height="30" as="geometry" />
        </mxCell>
        <mxCell id="4w2hhaubySZXChtMcjH1-8" value="" style="endArrow=none;html=1;rounded=0;entryX=0.614;entryY=0.933;entryDx=0;entryDy=0;entryPerimeter=0;exitX=0.129;exitY=0.067;exitDx=0;exitDy=0;exitPerimeter=0;" edge="1" parent="1" source="4w2hhaubySZXChtMcjH1-4" target="4w2hhaubySZXChtMcjH1-6">
          <mxGeometry width="50" height="50" relative="1" as="geometry">
            <mxPoint x="-190" y="757.5" as="sourcePoint" />
            <mxPoint x="-140" y="707.5" as="targetPoint" />
          </mxGeometry>
        </mxCell>
        <mxCell id="4w2hhaubySZXChtMcjH1-9" value="" style="endArrow=none;html=1;rounded=0;exitX=0.5;exitY=1;exitDx=0;exitDy=0;entryX=0.75;entryY=0;entryDx=0;entryDy=0;" edge="1" parent="1" source="4w2hhaubySZXChtMcjH1-7" target="4w2hhaubySZXChtMcjH1-4">
          <mxGeometry width="50" height="50" relative="1" as="geometry">
            <mxPoint x="-190" y="757.5" as="sourcePoint" />
            <mxPoint x="-140" y="707.5" as="targetPoint" />
          </mxGeometry>
        </mxCell>
        <mxCell id="4w2hhaubySZXChtMcjH1-10" value="" style="endArrow=none;html=1;rounded=0;entryX=0.5;entryY=0;entryDx=0;entryDy=0;exitX=0.75;exitY=1;exitDx=0;exitDy=0;" edge="1" parent="1" source="4w2hhaubySZXChtMcjH1-4" target="4w2hhaubySZXChtMcjH1-5">
          <mxGeometry width="50" height="50" relative="1" as="geometry">
            <mxPoint x="-190" y="757.5" as="sourcePoint" />
            <mxPoint x="-140" y="707.5" as="targetPoint" />
          </mxGeometry>
        </mxCell>
        <mxCell id="4w2hhaubySZXChtMcjH1-14" value="&lt;u&gt;id&lt;/u&gt;" style="ellipse;whiteSpace=wrap;html=1;labelBackgroundColor=none;fillColor=#09555B;strokeColor=#BAC8D3;fontColor=#EEEEEE;" vertex="1" parent="1">
          <mxGeometry x="-205.5" y="910" width="70" height="30" as="geometry" />
        </mxCell>
        <mxCell id="4w2hhaubySZXChtMcjH1-15" value="date_written" style="ellipse;whiteSpace=wrap;html=1;labelBackgroundColor=none;fillColor=#09555B;strokeColor=#BAC8D3;fontColor=#EEEEEE;" vertex="1" parent="1">
          <mxGeometry y="885" width="70" height="30" as="geometry" />
        </mxCell>
        <mxCell id="4w2hhaubySZXChtMcjH1-16" value="" style="endArrow=none;html=1;rounded=0;entryX=1;entryY=0.5;entryDx=0;entryDy=0;" edge="1" parent="1" source="tZGeiX8grV9DUVZ72_bN-17" target="4w2hhaubySZXChtMcjH1-14">
          <mxGeometry width="50" height="50" relative="1" as="geometry">
            <mxPoint x="14.5" y="890" as="sourcePoint" />
            <mxPoint x="64.5" y="840" as="targetPoint" />
          </mxGeometry>
        </mxCell>
        <mxCell id="4w2hhaubySZXChtMcjH1-17" value="" style="endArrow=none;html=1;rounded=0;entryX=0.623;entryY=0.935;entryDx=0;entryDy=0;exitX=0.25;exitY=0;exitDx=0;exitDy=0;entryPerimeter=0;" edge="1" parent="1" source="tZGeiX8grV9DUVZ72_bN-17" target="tZGeiX8grV9DUVZ72_bN-18">
          <mxGeometry width="50" height="50" relative="1" as="geometry">
            <mxPoint x="14.5" y="890" as="sourcePoint" />
            <mxPoint x="64.5" y="840" as="targetPoint" />
          </mxGeometry>
        </mxCell>
        <mxCell id="4w2hhaubySZXChtMcjH1-18" value="" style="endArrow=none;html=1;rounded=0;exitX=0.5;exitY=1;exitDx=0;exitDy=0;entryX=0.75;entryY=0;entryDx=0;entryDy=0;" edge="1" parent="1" source="tZGeiX8grV9DUVZ72_bN-20" target="tZGeiX8grV9DUVZ72_bN-17">
          <mxGeometry width="50" height="50" relative="1" as="geometry">
            <mxPoint x="14.5" y="890" as="sourcePoint" />
            <mxPoint x="-51" y="911" as="targetPoint" />
          </mxGeometry>
        </mxCell>
        <mxCell id="4w2hhaubySZXChtMcjH1-19" value="" style="endArrow=none;html=1;rounded=0;exitX=1;exitY=0.25;exitDx=0;exitDy=0;" edge="1" parent="1" source="tZGeiX8grV9DUVZ72_bN-17" target="4w2hhaubySZXChtMcjH1-15">
          <mxGeometry width="50" height="50" relative="1" as="geometry">
            <mxPoint x="14.5" y="890" as="sourcePoint" />
            <mxPoint x="64.5" y="840" as="targetPoint" />
          </mxGeometry>
        </mxCell>
        <mxCell id="4w2hhaubySZXChtMcjH1-20" value="quiz_id" style="ellipse;whiteSpace=wrap;html=1;labelBackgroundColor=none;fillColor=#09555B;strokeColor=#BAC8D3;fontColor=#EEEEEE;" vertex="1" parent="1">
          <mxGeometry x="-120" y="840" width="70" height="30" as="geometry" />
        </mxCell>
        <mxCell id="4w2hhaubySZXChtMcjH1-21" value="" style="endArrow=none;html=1;rounded=0;exitX=0.428;exitY=0.063;exitDx=0;exitDy=0;exitPerimeter=0;entryX=0.5;entryY=1;entryDx=0;entryDy=0;" edge="1" parent="1" source="tZGeiX8grV9DUVZ72_bN-17" target="4w2hhaubySZXChtMcjH1-20">
          <mxGeometry width="50" height="50" relative="1" as="geometry">
            <mxPoint x="-100" y="850" as="sourcePoint" />
            <mxPoint x="-50" y="800" as="targetPoint" />
          </mxGeometry>
        </mxCell>
        <mxCell id="4w2hhaubySZXChtMcjH1-22" value="from_date" style="ellipse;whiteSpace=wrap;html=1;labelBackgroundColor=none;fillColor=#09555B;strokeColor=#BAC8D3;fontColor=#EEEEEE;" vertex="1" parent="1">
          <mxGeometry x="-504.5" y="710" width="70" height="30" as="geometry" />
        </mxCell>
        <mxCell id="4w2hhaubySZXChtMcjH1-23" value="to_date" style="ellipse;whiteSpace=wrap;html=1;labelBackgroundColor=none;fillColor=#09555B;strokeColor=#BAC8D3;fontColor=#EEEEEE;" vertex="1" parent="1">
          <mxGeometry x="-425" y="740" width="70" height="30" as="geometry" />
        </mxCell>
        <mxCell id="4w2hhaubySZXChtMcjH1-24" value="intended_quiz" style="ellipse;whiteSpace=wrap;html=1;labelBackgroundColor=none;fillColor=#09555B;strokeColor=#BAC8D3;fontColor=#EEEEEE;" vertex="1" parent="1">
          <mxGeometry x="-275.5" y="470" width="90" height="30" as="geometry" />
        </mxCell>
        <mxCell id="4w2hhaubySZXChtMcjH1-26" value="" style="endArrow=none;html=1;rounded=0;exitX=1;exitY=0;exitDx=0;exitDy=0;entryX=0;entryY=0.5;entryDx=0;entryDy=0;" edge="1" parent="1" source="4w2hhaubySZXChtMcjH1-22" target="4w2hhaubySZXChtMcjH1-4">
          <mxGeometry width="50" height="50" relative="1" as="geometry">
            <mxPoint x="-120" y="750" as="sourcePoint" />
            <mxPoint x="-70" y="700" as="targetPoint" />
          </mxGeometry>
        </mxCell>
        <mxCell id="4w2hhaubySZXChtMcjH1-27" value="" style="endArrow=none;html=1;rounded=0;exitX=0.5;exitY=0;exitDx=0;exitDy=0;entryX=0.5;entryY=1;entryDx=0;entryDy=0;" edge="1" parent="1" source="4w2hhaubySZXChtMcjH1-23" target="4w2hhaubySZXChtMcjH1-4">
          <mxGeometry width="50" height="50" relative="1" as="geometry">
            <mxPoint x="-120" y="750" as="sourcePoint" />
            <mxPoint x="-70" y="700" as="targetPoint" />
          </mxGeometry>
        </mxCell>
        <mxCell id="4w2hhaubySZXChtMcjH1-28" value="" style="endArrow=none;html=1;rounded=0;exitX=0.5;exitY=1;exitDx=0;exitDy=0;entryX=0.75;entryY=0;entryDx=0;entryDy=0;" edge="1" parent="1" source="4w2hhaubySZXChtMcjH1-24" target="h5k0YEzs9gjq5X7zC4rC-70">
          <mxGeometry width="50" height="50" relative="1" as="geometry">
            <mxPoint x="-120" y="750" as="sourcePoint" />
            <mxPoint x="-70" y="700" as="targetPoint" />
          </mxGeometry>
        </mxCell>
        <mxCell id="4w2hhaubySZXChtMcjH1-30" value="student_id" style="ellipse;whiteSpace=wrap;html=1;labelBackgroundColor=none;fillColor=#09555B;strokeColor=#BAC8D3;fontColor=#EEEEEE;" vertex="1" parent="1">
          <mxGeometry x="-345.5" y="485" width="70" height="30" as="geometry" />
        </mxCell>
        <mxCell id="4w2hhaubySZXChtMcjH1-31" value="" style="endArrow=none;html=1;rounded=0;entryX=1;entryY=1;entryDx=0;entryDy=0;" edge="1" parent="1" source="h5k0YEzs9gjq5X7zC4rC-70" target="4w2hhaubySZXChtMcjH1-30">
          <mxGeometry width="50" height="50" relative="1" as="geometry">
            <mxPoint x="-120" y="630" as="sourcePoint" />
            <mxPoint x="-70" y="580" as="targetPoint" />
          </mxGeometry>
        </mxCell>
      </root>
    </mxGraphModel>
  </diagram>
</mxfile>
